<svg xmlns="http://www.w3.org/2000/svg" width="512" height="512" viewBox="0 0 512 512"><rect x="78" y="82" width="353" height="349" fill="#08c2f5"/><path d="M256,0A256,256,0,1,0,512,256C512,114.43,396.39,0,256,0ZM219.43,364.54,200.55,420c-70.78-23.59-118-90.84-118-166.34S129.77,112.07,201.73,87.3l18.88,55.45c-47.19,15.33-77.86,60.16-77.86,109.71C141.57,304.37,172.24,349.2,219.43,364.54Zm88.48,56.62-17.7-56.62c48.37-15.34,80.22-60.17,80.22-110.9s-31.85-94.38-79-109.71L310.27,87.3A175,175,0,0,1,430.6,253.64C429.42,331.5,379.87,398.75,307.91,421.16Z" fill="#08c2f5"/><rect x="78" y="82" width="353" height="349" fill="#fff"/><path d="M256,0A256,256,0,1,0,512,256C512,114.43,396.39,0,256,0ZM219.43,364.54,200.55,420c-70.78-23.59-118-90.84-118-166.34S129.77,112.07,201.73,87.3l18.88,55.45c-47.19,15.33-77.86,60.16-77.86,109.71C141.57,304.37,172.24,349.2,219.43,364.54Zm88.48,56.62-17.7-56.62c48.37-15.34,80.22-60.17,80.22-110.9s-31.85-94.38-79-109.71L310.27,87.3A175,175,0,0,1,430.6,253.64C429.42,331.5,379.87,398.75,307.91,421.16Z" fill="#08c2f5"/></svg>