<svg width="16" height="16" viewBox="0 0 16 16" fill="none" xmlns="http://www.w3.org/2000/svg">
<path fill-rule="evenodd" clip-rule="evenodd" d="M1.88547 0.510903C2.06045 0.336191 2.27055 0.200661 2.50187 0.113293C2.73318 0.0259244 2.98043 -0.0112866 3.22721 0.00412564C3.47399 0.0195378 3.71469 0.0872213 3.93333 0.202691C4.15198 0.31816 4.34359 0.478779 4.49547 0.673903L6.29047 2.9799C6.61947 3.4029 6.73547 3.9539 6.60547 4.4739L6.05847 6.6639C6.03019 6.77733 6.03172 6.89615 6.06291 7.00881C6.0941 7.12148 6.15388 7.22416 6.23647 7.3069L8.69347 9.7639C8.77631 9.84666 8.87916 9.90655 8.99202 9.93774C9.10488 9.96893 9.22389 9.97037 9.33747 9.9419L11.5265 9.3949C11.7831 9.33074 12.0509 9.32576 12.3098 9.38033C12.5686 9.4349 12.8116 9.5476 13.0205 9.7099L15.3265 11.5039C16.1555 12.1489 16.2315 13.3739 15.4895 14.1149L14.4555 15.1489C13.7155 15.8889 12.6095 16.2139 11.5785 15.8509C8.93965 14.9224 6.54374 13.4117 4.56847 11.4309C2.58776 9.45592 1.07708 7.06036 0.148471 4.4219C-0.213529 3.3919 0.111471 2.2849 0.851471 1.5449L1.88547 0.510903Z" fill="white"/>
</svg>
