<svg width="189" height="49" viewBox="0 0 189 49" fill="none" xmlns="http://www.w3.org/2000/svg">
<path d="M22.7509 0.510986L0.592773 10.9888L6.60466 32.9752L22.7509 47.919L38.8971 32.9752L44.9089 10.9888L22.7509 0.510986Z" fill="#1F2A38"/>
<path d="M6.60547 32.9752L22.7517 0.510986L38.8979 32.9752H22.7517H6.60547Z" fill="#FA5B01"/>
<path fill-rule="evenodd" clip-rule="evenodd" d="M22.7514 0.000244141L45.4569 10.737L39.3081 33.2242L22.7514 48.5479L6.19474 33.2242L0.0458984 10.737L22.7514 0.000244141ZM1.14074 11.2405L7.01566 32.7259L22.7514 47.2899L38.4871 32.7259L44.3621 11.2405L22.7514 1.02152L1.14074 11.2405Z" fill="#FA5B01"/>
<path d="M57 14.6252L57.8082 13.2654C58.8642 13.9403 59.8556 14.2777 60.7823 14.2777C61.5582 14.2777 62.2209 14.0309 62.7705 13.5373C63.3201 13.0437 63.6487 12.2379 63.7565 11.1197H59.3922V9.65409H63.7565C63.6703 8.72735 63.3847 7.99704 62.8998 7.46316C62.4149 6.9192 61.7198 6.64722 60.8147 6.64722C60.2866 6.64722 59.6886 6.73788 59.0205 6.9192L58.681 8.43019H57.3071L57.1616 5.83129C58.6703 5.27726 60.0226 5.00024 61.2188 5.00024C62.2425 5.00024 63.1261 5.20675 63.8696 5.61975C64.6239 6.02268 65.2058 6.617 65.6153 7.40272C66.0248 8.18843 66.2295 9.15043 66.2295 10.2887C66.2295 11.5277 65.9925 12.5753 65.5183 13.4316C65.055 14.2777 64.43 14.9174 63.6433 15.3505C62.8675 15.7837 62.0054 16.0002 61.0571 16.0002C60.3782 16.0002 59.694 15.8894 59.0043 15.6678C58.3147 15.4361 57.6466 15.0886 57 14.6252Z" fill="white"/>
<path d="M72.4435 14.731V15.8189H67.8045V14.731L69.0006 14.4137V6.63211L67.8045 6.34502V5.25711L72.4435 5.18156V6.23926L71.3121 6.60189V9.60876H72.8315L74.755 6.55656L73.7366 6.34502V5.25711L78.1009 5.18156V6.26947L76.9856 6.60189L74.5448 10.2736L77.616 14.4439L78.6181 14.731V15.8189H74.0276V14.731L74.9974 14.4137L72.7345 11.1651H71.3121V14.3835L72.4435 14.731Z" fill="white"/>
<path d="M83.9652 16.0002C83.0816 16.0002 82.268 15.7937 81.5244 15.3807C80.7917 14.9677 80.2044 14.3583 79.7626 13.5524C79.3316 12.7466 79.116 11.7493 79.116 10.5607C79.116 9.39218 79.3316 8.39493 79.7626 7.56893C80.1936 6.74292 80.8025 6.1083 81.5891 5.66508C82.3757 5.22186 83.2971 5.00024 84.3531 5.00024C85.4415 5.00024 86.6538 5.26215 87.99 5.78596L87.8445 8.50574H86.4706L86.1311 6.96453C85.5061 6.76306 84.9404 6.66233 84.4339 6.66233C83.5072 6.66233 82.8014 6.98468 82.3165 7.62936C81.8423 8.26398 81.6053 9.15043 81.6053 10.2887C81.6053 11.6184 81.88 12.6106 82.4296 13.2654C82.99 13.9201 83.6958 14.2475 84.5471 14.2475C84.9673 14.2475 85.4145 14.1669 85.8887 14.0057C86.3628 13.8345 86.8316 13.5776 87.2949 13.2351L88.1516 14.4893C87.4835 14.9929 86.7885 15.3707 86.0665 15.6225C85.3553 15.8743 84.6548 16.0002 83.9652 16.0002Z" fill="white"/>
<path d="M89.5714 15.8189V14.731L90.7675 14.4137V6.64722L89.5714 6.34502V5.25711L93.0789 5.18156H100.918V6.26947L99.7384 6.63211V14.4137L100.918 14.731V15.8189H96.2309V14.731L97.4108 14.3986V6.73788H93.0789V14.3986L94.2589 14.731V15.8189H89.5714Z" fill="white"/>
<path d="M109.492 12.9783H110.866L110.834 15.8189H102.412V14.731L103.608 14.4137V6.64722L102.412 6.34502V5.25711L105.871 5.18156H110.656V7.90134H109.282L109.023 6.73788H105.92V9.65409H109.395V11.15H105.92V14.2626H109.217L109.492 12.9783Z" fill="white"/>
<path d="M116.901 12.0566H116.093V14.4137L117.628 14.731V15.8189H112.585V14.731L113.781 14.4137V6.63211L112.585 6.34502V5.25711L116.141 5.18156H117.612C118.507 5.18156 119.239 5.32762 119.81 5.61975C120.382 5.9018 120.802 6.29466 121.071 6.79832C121.351 7.29191 121.492 7.84594 121.492 8.46041C121.492 9.14539 121.325 9.75986 120.99 10.3038C120.667 10.8377 120.166 11.2658 119.487 11.5882C118.819 11.9004 117.957 12.0566 116.901 12.0566ZM117.24 6.72277H116.093V10.5002H116.917C117.628 10.5002 118.173 10.3189 118.55 9.95629C118.938 9.59365 119.132 9.11013 119.132 8.50574C119.132 7.95171 118.97 7.51856 118.647 7.20629C118.334 6.88394 117.865 6.72277 117.24 6.72277Z" fill="white"/>
<path d="M124.474 15.8189V14.731L125.848 14.4137V6.73788H124.103L123.763 8.23376H122.389V5.18156H131.635V8.23376H130.261L129.922 6.73788H128.176V14.4137L129.55 14.731V15.8189H124.474Z" fill="white"/>
<path d="M132.584 15.8189V14.731L133.78 14.4137V6.64722L132.584 6.34502V5.25711L137.272 5.18156V6.26947L136.092 6.63211V9.62387H140.65V6.64722L139.454 6.34502V5.25711L144.141 5.18156V6.26947L142.961 6.63211V14.4137L144.141 14.731V15.8189H139.454V14.731L140.65 14.3986V11.1802H136.092V14.3986L137.272 14.731V15.8189H132.584Z" fill="white"/>
<path d="M150.738 16.0002C149.208 16.0002 147.99 15.5469 147.085 14.6404C146.18 13.7237 145.727 12.389 145.727 10.6362C145.727 9.38715 145.953 8.34457 146.406 7.50849C146.859 6.67241 147.484 6.04786 148.281 5.63486C149.089 5.21178 150.021 5.00024 151.077 5.00024C152.123 5.00024 153.028 5.20171 153.793 5.60464C154.569 6.00757 155.167 6.60693 155.587 7.40272C156.018 8.18843 156.234 9.15546 156.234 10.3038C156.234 11.4824 156.002 12.4998 155.539 13.356C155.086 14.2122 154.445 14.867 153.615 15.3203C152.796 15.7736 151.837 16.0002 150.738 16.0002ZM150.916 14.3382C151.444 14.3382 151.923 14.2173 152.354 13.9755C152.785 13.7237 153.125 13.3107 153.373 12.7365C153.621 12.1523 153.744 11.3716 153.744 10.3945C153.744 9.48788 153.631 8.76261 153.405 8.21865C153.179 7.66462 152.855 7.26673 152.435 7.02497C152.026 6.78321 151.541 6.66233 150.98 6.66233C150.442 6.66233 149.962 6.78321 149.542 7.02497C149.132 7.26673 148.809 7.66966 148.572 8.23376C148.335 8.79786 148.216 9.5735 148.216 10.5607C148.216 11.9105 148.453 12.8775 148.928 13.4618C149.413 14.046 150.075 14.3382 150.916 14.3382Z" fill="white"/>
<path d="M162.722 16.0002C161.839 16.0002 161.025 15.7937 160.281 15.3807C159.549 14.9677 158.961 14.3583 158.52 13.5524C158.089 12.7466 157.873 11.7493 157.873 10.5607C157.873 9.39218 158.089 8.39493 158.52 7.56893C158.951 6.74292 159.559 6.1083 160.346 5.66508C161.133 5.22186 162.054 5.00024 163.11 5.00024C164.198 5.00024 165.411 5.26215 166.747 5.78596L166.602 8.50574H165.228L164.888 6.96453C164.263 6.76306 163.697 6.66233 163.191 6.66233C162.264 6.66233 161.558 6.98468 161.073 7.62936C160.599 8.26398 160.362 9.15043 160.362 10.2887C160.362 11.6184 160.637 12.6106 161.187 13.2654C161.747 13.9201 162.453 14.2475 163.304 14.2475C163.724 14.2475 164.172 14.1669 164.646 14.0057C165.12 13.8345 165.589 13.5776 166.052 13.2351L166.909 14.4893C166.241 14.9929 165.545 15.3707 164.823 15.6225C164.112 15.8743 163.412 16.0002 162.722 16.0002Z" fill="white"/>
<path d="M169.871 15.8189V14.731L171.245 14.4137V6.73788H169.499L169.16 8.23376H167.786V5.18156H177.031V8.23376H175.657L175.318 6.73788H173.572V14.4137L174.946 14.731V15.8189H169.871Z" fill="white"/>
<path d="M177.981 15.8189V14.731L179.177 14.4137V6.64722L177.981 6.34502V5.25711L182.668 5.18156V6.26947L181.488 6.63211V9.29145H183.088C184.425 9.29145 185.411 9.56343 186.046 10.1074C186.682 10.6413 187 11.3968 187 12.3739C187 13.4013 186.628 14.2324 185.885 14.867C185.141 15.5016 183.988 15.8189 182.426 15.8189H177.981ZM182.765 10.742H181.488V14.2626H182.426C183.148 14.2626 183.697 14.1165 184.074 13.8244C184.452 13.5222 184.64 13.0639 184.64 12.4494C184.64 11.8551 184.478 11.4219 184.155 11.15C183.843 10.878 183.379 10.742 182.765 10.742Z" fill="white"/>
<path d="M60.3897 30.5906C61.2304 30.5906 61.9214 30.3764 62.4629 29.948C63.0076 29.5161 63.3826 28.9393 63.5877 28.2174L62.6747 27.9745C62.5267 28.5142 62.2611 28.9427 61.8777 29.2598C61.4977 29.5735 61.0017 29.7304 60.3897 29.7304C59.8483 29.7304 59.396 29.6072 59.0328 29.361C58.6696 29.1147 58.3972 28.7706 58.2156 28.3287C58.0341 27.8868 57.9449 27.3757 57.9483 26.7954C57.9517 26.2118 58.0441 25.7007 58.2257 25.2622C58.4073 24.8202 58.678 24.4761 59.0379 24.2299C59.3977 23.9836 59.8483 23.8605 60.3897 23.8605C61.0017 23.8605 61.4977 24.0174 61.8777 24.3311C62.2611 24.6448 62.5267 25.0733 62.6747 25.6164L63.5877 25.3735C63.3826 24.6482 63.0076 24.0713 62.4629 23.6429C61.9214 23.2145 61.2304 23.0002 60.3897 23.0002C59.6667 23.0002 59.0513 23.1605 58.5435 23.481C58.0391 23.8014 57.6557 24.2467 57.3934 24.8169C57.1311 25.387 57 26.0465 57 26.7954C57 27.5443 57.1311 28.2039 57.3934 28.774C57.6557 29.3441 58.0391 29.7894 58.5435 30.1099C59.0513 30.4304 59.6667 30.5906 60.3897 30.5906Z" fill="#B8C2CF"/>
<path d="M66.3384 30.4388H67.2362V25.7935H69.1328V24.9737H64.4417V25.7935H66.3384V30.4388Z" fill="#B8C2CF"/>
<path d="M70.2844 32.8677H71.1873V29.9328C71.3824 30.1386 71.6127 30.3005 71.8784 30.4186C72.1474 30.5333 72.4517 30.5906 72.7914 30.5906C73.2992 30.5906 73.7346 30.4641 74.0978 30.2111C74.4644 29.9547 74.7452 29.6089 74.9402 29.1737C75.1352 28.7386 75.2328 28.2477 75.2328 27.7012C75.2328 27.1547 75.1352 26.6639 74.9402 26.2287C74.7452 25.7935 74.4644 25.4511 74.0978 25.2014C73.7346 24.9484 73.3008 24.8219 72.7964 24.8219C72.4265 24.8219 72.0986 24.8894 71.8128 25.0243C71.527 25.1593 71.2848 25.3465 71.0864 25.586V24.9737H70.2844V32.8677ZM72.6804 29.7658C72.1323 29.7658 71.7287 29.5718 71.4698 29.1839C71.2142 28.7959 71.0864 28.3017 71.0864 27.7012C71.0864 27.0974 71.2142 26.6048 71.4698 26.2236C71.7287 25.839 72.1239 25.6468 72.6552 25.6468C73.0251 25.6468 73.3294 25.7378 73.5682 25.92C73.8103 26.1022 73.9885 26.3484 74.1029 26.6588C74.2206 26.9692 74.2794 27.3166 74.2794 27.7012C74.2794 28.0892 74.2206 28.44 74.1029 28.7537C73.9852 29.0641 73.8086 29.3104 73.5732 29.4925C73.3378 29.6747 73.0402 29.7658 72.6804 29.7658Z" fill="#B8C2CF"/>
<path d="M78.8606 30.5906C79.402 30.5906 79.8678 30.4692 80.2579 30.2263C80.6513 29.9834 80.954 29.6443 81.1658 29.2092C81.381 28.774 81.4886 28.2713 81.4886 27.7012C81.4886 27.1378 81.3827 26.6402 81.1709 26.2084C80.9624 25.7733 80.6614 25.4342 80.268 25.1913C79.8745 24.9451 79.4054 24.8219 78.8606 24.8219C78.3293 24.8219 77.8669 24.9434 77.4735 25.1863C77.08 25.4258 76.7757 25.7614 76.5605 26.1933C76.3453 26.6251 76.2377 27.1277 76.2377 27.7012C76.2377 28.2646 76.3419 28.7639 76.5504 29.199C76.7622 29.6342 77.0649 29.9749 77.4583 30.2212C77.8518 30.4675 78.3192 30.5906 78.8606 30.5906ZM78.8606 29.7354C78.3125 29.7354 77.8972 29.5516 77.6147 29.1839C77.3322 28.8128 77.191 28.3186 77.191 27.7012C77.191 27.1041 77.3272 26.6183 77.5996 26.2439C77.872 25.866 78.2923 25.6771 78.8606 25.6771C79.4189 25.6771 79.8375 25.861 80.1166 26.2287C80.3957 26.5964 80.5353 27.0872 80.5353 27.7012C80.5353 28.3017 80.3957 28.7908 80.1166 29.1687C79.8409 29.5465 79.4222 29.7354 78.8606 29.7354Z" fill="#B8C2CF"/>
<path d="M87.2601 24.9737H86.5236L83.6636 28.946V24.9737H82.796V30.4388H83.5375L86.3925 26.4108V30.4388H87.2601V24.9737Z" fill="#B8C2CF"/>
<path d="M90.3172 30.4388H91.215V25.7935H93.1116V24.9737H88.4205V25.7935H90.3172V30.4388Z" fill="#B8C2CF"/>
<path d="M96.6289 30.5906C97.1569 30.5906 97.6327 30.459 98.0564 30.1959C98.4801 29.9294 98.7996 29.5549 99.0148 29.0725L98.1523 28.774C97.8395 29.4149 97.3183 29.7354 96.5886 29.7354C96.0875 29.7354 95.6941 29.5819 95.4082 29.2749C95.1258 28.9646 94.966 28.526 94.929 27.9593H99.1056C99.1325 27.3116 99.0485 26.7533 98.8534 26.2843C98.6617 25.8154 98.3725 25.4545 97.9858 25.2014C97.6025 24.9484 97.1367 24.8219 96.5886 24.8219C96.0606 24.8219 95.5999 24.9417 95.2065 25.1812C94.813 25.4174 94.507 25.7547 94.2884 26.1933C94.0732 26.6284 93.9656 27.1446 93.9656 27.7417C93.9656 28.3118 94.0749 28.8111 94.2935 29.2395C94.5154 29.6646 94.8265 29.9969 95.2266 30.2364C95.6268 30.4725 96.0942 30.5906 96.6289 30.5906ZM96.6188 25.6316C97.5436 25.6316 98.0615 26.1663 98.1724 27.2357H94.9442C95.0081 26.7161 95.1812 26.3198 95.4637 26.0465C95.7462 25.7699 96.1312 25.6316 96.6188 25.6316Z" fill="#B8C2CF"/>
<path d="M99.926 30.4388C100.293 30.513 100.583 30.5198 100.799 30.459C101.014 30.4017 101.179 30.2752 101.293 30.0795C101.407 29.8805 101.496 29.6157 101.56 29.2851C101.611 29.0287 101.658 28.7099 101.702 28.3287C101.749 27.9475 101.791 27.5393 101.828 27.1041C101.868 26.6689 101.903 26.2439 101.934 25.8289H104.027V30.4388H104.925V24.9737H101.116C101.069 25.7868 101.017 26.5188 100.96 27.1699C100.906 27.8176 100.837 28.381 100.753 28.86C100.699 29.167 100.624 29.3913 100.526 29.533C100.429 29.6747 100.229 29.7186 99.926 29.6646V30.4388Z" fill="#B8C2CF"/>
<path d="M106.543 30.4388H108.667C108.822 30.4388 108.985 30.4354 109.156 30.4287C109.331 30.4186 109.486 30.3983 109.62 30.368C110.014 30.2802 110.332 30.0981 110.574 29.8215C110.819 29.5448 110.942 29.1704 110.942 28.6981C110.942 28.1853 110.811 27.7974 110.548 27.5342C110.289 27.2677 109.95 27.0923 109.53 27.008C109.405 26.9843 109.26 26.9692 109.096 26.9624C108.934 26.9557 108.775 26.9523 108.617 26.9523H107.441V24.9737H106.538L106.543 30.4388ZM107.441 29.6949V27.6961H108.682C108.78 27.6961 108.882 27.6995 108.99 27.7063C109.097 27.713 109.2 27.7282 109.297 27.7518C109.509 27.799 109.683 27.8986 109.817 28.0504C109.952 28.2022 110.019 28.4181 110.019 28.6981C110.019 28.9747 109.95 29.1889 109.812 29.3407C109.674 29.4892 109.521 29.587 109.353 29.6342C109.252 29.6612 109.139 29.6781 109.015 29.6848C108.891 29.6916 108.78 29.6949 108.682 29.6949H107.441Z" fill="#B8C2CF"/>
<path d="M112.1 30.4388H112.997V28.1313H115.862V30.4388H116.76V24.9737H115.862V27.2761H112.997V24.9737H112.1V30.4388Z" fill="#B8C2CF"/>
<path d="M119.924 30.5906C120.832 30.5906 121.504 30.2566 121.941 29.5887V30.4388H122.738V27.0586C122.738 26.8427 122.728 26.6369 122.708 26.4412C122.688 26.2422 122.639 26.0583 122.562 25.8896C122.407 25.5321 122.152 25.2655 121.795 25.0901C121.439 24.9113 121.015 24.8219 120.524 24.8219C119.909 24.8219 119.411 24.9586 119.031 25.2318C118.654 25.5051 118.402 25.8812 118.274 26.3602L119.127 26.6183C119.224 26.2843 119.397 26.0414 119.646 25.8896C119.895 25.7378 120.184 25.6619 120.514 25.6619C120.985 25.6619 121.323 25.7682 121.528 25.9807C121.736 26.1899 121.846 26.5121 121.856 26.9472C121.452 27.0046 121.028 27.0653 120.584 27.1294C120.144 27.1901 119.752 27.266 119.409 27.3571C118.996 27.4786 118.669 27.6692 118.431 27.9289C118.192 28.1853 118.072 28.5294 118.072 28.9612C118.072 29.2547 118.141 29.5246 118.279 29.7708C118.421 30.0171 118.627 30.2161 118.9 30.368C119.175 30.5164 119.517 30.5906 119.924 30.5906ZM120.06 29.8366C119.673 29.8366 119.394 29.7472 119.223 29.5684C119.051 29.3863 118.965 29.1822 118.965 28.9561C118.965 28.6998 119.049 28.5041 119.217 28.3692C119.389 28.2308 119.587 28.1263 119.813 28.0554C120.078 27.9812 120.388 27.9188 120.741 27.8682C121.094 27.8176 121.462 27.767 121.846 27.7164C121.846 27.8412 121.839 27.9829 121.825 28.1414C121.815 28.3 121.792 28.4451 121.755 28.5766C121.691 28.914 121.513 29.2092 121.22 29.4622C120.931 29.7118 120.544 29.8366 120.06 29.8366Z" fill="#B8C2CF"/>
<path d="M123.949 30.4388H124.917L126.209 28.4552C126.286 28.4586 126.363 28.4602 126.441 28.4602H127.616V30.4388H128.519L128.514 24.9737H126.39C126.266 24.9737 126.118 24.9771 125.946 24.9839C125.775 24.9906 125.605 25.0125 125.437 25.0496C125.06 25.134 124.746 25.3195 124.494 25.6063C124.241 25.8896 124.115 26.2658 124.115 26.7347C124.115 27.1766 124.228 27.5308 124.453 27.7974C124.682 28.0605 124.968 28.2427 125.311 28.3439L123.949 30.4388ZM126.375 27.7164C126.294 27.7164 126.199 27.713 126.088 27.7063C125.98 27.6995 125.872 27.6827 125.765 27.6557C125.56 27.6017 125.387 27.4971 125.245 27.3419C125.107 27.1834 125.038 26.9776 125.038 26.7246C125.038 26.4614 125.109 26.2523 125.25 26.0971C125.395 25.9386 125.548 25.8357 125.709 25.7884C125.824 25.7547 125.943 25.7345 126.067 25.7277C126.195 25.721 126.298 25.7176 126.375 25.7176H127.616V27.7164H126.375Z" fill="#B8C2CF"/>
<path d="M134.322 30.5906C134.866 30.5906 135.332 30.4692 135.719 30.2263C136.105 29.98 136.401 29.641 136.607 29.2092C136.812 28.7774 136.914 28.2781 136.914 27.7113C136.914 27.1412 136.81 26.6402 136.601 26.2084C136.396 25.7733 136.1 25.4342 135.714 25.1913C135.327 24.9451 134.865 24.8219 134.327 24.8219C133.741 24.8219 133.24 24.9636 132.823 25.247C132.41 25.5304 132.131 25.9183 131.986 26.4108L132.874 26.679C132.992 26.3586 133.18 26.1123 133.439 25.9402C133.698 25.7648 133.997 25.6771 134.337 25.6771C134.828 25.6771 135.204 25.8323 135.467 26.1427C135.729 26.4496 135.884 26.846 135.931 27.3318H133.701V28.0757H135.931C135.877 28.5817 135.715 28.9848 135.446 29.2851C135.181 29.5853 134.804 29.7354 134.316 29.7354C133.62 29.7354 133.146 29.4166 132.894 28.779L131.986 29.0169C132.178 29.5263 132.474 29.9159 132.874 30.1858C133.274 30.4557 133.757 30.5906 134.322 30.5906Z" fill="#B8C2CF"/>
<path d="M138.221 30.4388H139.134V27.8075L141.611 30.4388H142.867L140.178 27.7063L142.584 24.9737H141.419L139.134 27.6051V24.9737H138.226L138.221 30.4388Z" fill="#B8C2CF"/>
<path d="M145.767 30.5906C146.329 30.5906 146.809 30.4557 147.21 30.1858C147.61 29.9159 147.906 29.5263 148.097 29.0169L147.189 28.779C146.937 29.4166 146.463 29.7354 145.767 29.7354C145.226 29.7354 144.817 29.5499 144.541 29.1788C144.269 28.8077 144.129 28.3169 144.123 27.7063C144.129 27.1125 144.266 26.6268 144.531 26.2489C144.797 25.8677 145.209 25.6771 145.767 25.6771C146.097 25.6771 146.391 25.7648 146.65 25.9402C146.909 26.1157 147.095 26.3619 147.21 26.679L148.097 26.4108C147.953 25.9183 147.672 25.5304 147.255 25.247C146.841 24.9636 146.349 24.8219 145.777 24.8219C145.232 24.8219 144.765 24.9451 144.375 25.1913C143.988 25.4342 143.692 25.7716 143.487 26.2034C143.282 26.6352 143.176 27.1361 143.169 27.7063C143.176 28.2629 143.28 28.7588 143.482 29.194C143.684 29.6292 143.976 29.9716 144.36 30.2212C144.746 30.4675 145.215 30.5906 145.767 30.5906Z" fill="#B8C2CF"/>
<path d="M149.324 30.4388H150.221V25.8289H152.89V30.4388H153.788V24.9737H149.324V30.4388Z" fill="#B8C2CF"/>
<path d="M157.763 30.5906C158.291 30.5906 158.767 30.459 159.19 30.1959C159.614 29.9294 159.934 29.5549 160.149 29.0725L159.286 28.774C158.973 29.4149 158.452 29.7354 157.723 29.7354C157.221 29.7354 156.828 29.5819 156.542 29.2749C156.26 28.9646 156.1 28.526 156.063 27.9593H160.24C160.266 27.3116 160.182 26.7533 159.987 26.2843C159.796 25.8154 159.506 25.4545 159.12 25.2014C158.736 24.9484 158.271 24.8219 157.723 24.8219C157.195 24.8219 156.734 24.9417 156.34 25.1812C155.947 25.4174 155.641 25.7547 155.422 26.1933C155.207 26.6284 155.1 27.1446 155.1 27.7417C155.1 28.3118 155.209 28.8111 155.427 29.2395C155.649 29.6646 155.96 29.9969 156.361 30.2364C156.761 30.4725 157.228 30.5906 157.763 30.5906ZM157.753 25.6316C158.678 25.6316 159.195 26.1663 159.306 27.2357H156.078C156.142 26.7161 156.315 26.3198 156.598 26.0465C156.88 25.7699 157.265 25.6316 157.753 25.6316Z" fill="#B8C2CF"/>
<path d="M161.559 32.8677H162.462V29.9328C162.657 30.1386 162.888 30.3005 163.153 30.4186C163.422 30.5333 163.727 30.5906 164.066 30.5906C164.574 30.5906 165.01 30.4641 165.373 30.2111C165.739 29.9547 166.02 29.6089 166.215 29.1737C166.41 28.7386 166.508 28.2477 166.508 27.7012C166.508 27.1547 166.41 26.6639 166.215 26.2287C166.02 25.7935 165.739 25.4511 165.373 25.2014C165.01 24.9484 164.576 24.8219 164.071 24.8219C163.701 24.8219 163.374 24.8894 163.088 25.0243C162.802 25.1593 162.56 25.3465 162.361 25.586V24.9737H161.559V32.8677ZM163.955 29.7658C163.407 29.7658 163.004 29.5718 162.745 29.1839C162.489 28.7959 162.361 28.3017 162.361 27.7012C162.361 27.0974 162.489 26.6048 162.745 26.2236C163.004 25.839 163.399 25.6468 163.93 25.6468C164.3 25.6468 164.604 25.7378 164.843 25.92C165.085 26.1022 165.263 26.3484 165.378 26.6588C165.495 26.9692 165.554 27.3166 165.554 27.7012C165.554 28.0892 165.495 28.44 165.378 28.7537C165.26 29.0641 165.084 29.3104 164.848 29.4925C164.613 29.6747 164.315 29.7658 163.955 29.7658Z" fill="#B8C2CF"/>
<path d="M169.258 30.4388H170.156V25.7935H172.052V24.9737H167.361V25.7935H169.258V30.4388Z" fill="#B8C2CF"/>
<path d="M177.668 24.9737H176.932L174.071 28.946V24.9737H173.204V30.4388H173.945L176.8 26.4108V30.4388H177.668V24.9737Z" fill="#B8C2CF"/>
<path d="M181.235 30.5906C181.625 30.5906 181.978 30.5231 182.294 30.3882C182.61 30.2499 182.86 30.0542 183.045 29.8012C183.234 29.5448 183.328 29.2378 183.328 28.8802C183.328 28.6171 183.271 28.3675 183.156 28.1313C183.045 27.8918 182.876 27.708 182.647 27.5798C183 27.2694 183.177 26.8814 183.177 26.4159C183.177 26.0752 183.089 25.7868 182.914 25.5506C182.743 25.3111 182.511 25.1306 182.218 25.0092C181.929 24.8843 181.61 24.8219 181.26 24.8219C180.823 24.8219 180.419 24.9012 180.049 25.0598C179.683 25.2149 179.36 25.4376 179.081 25.7277L179.625 26.34C179.824 26.1477 180.061 25.9892 180.337 25.8643C180.612 25.7361 180.902 25.6721 181.204 25.6721C181.49 25.6721 181.736 25.7378 181.941 25.8694C182.149 26.001 182.253 26.2068 182.253 26.4868C182.253 26.7634 182.143 26.959 181.921 27.0737C181.699 27.1884 181.411 27.2458 181.058 27.2458H180.498V27.9896H181.063C181.483 27.9896 181.813 28.0436 182.052 28.1516C182.29 28.2561 182.41 28.4687 182.41 28.7892C182.41 29.0827 182.301 29.3137 182.082 29.4824C181.863 29.6511 181.569 29.7354 181.199 29.7354C180.846 29.7354 180.532 29.6561 180.256 29.4976C179.98 29.3357 179.743 29.1046 179.545 28.8043L178.828 29.2699C179.067 29.6848 179.393 30.0087 179.807 30.2414C180.221 30.4742 180.697 30.5906 181.235 30.5906Z" fill="#B8C2CF"/>
<path d="M186.185 30.5906C187.093 30.5906 187.766 30.2566 188.203 29.5887V30.4388H189V27.0586C189 26.8427 188.99 26.6369 188.97 26.4412C188.95 26.2422 188.901 26.0583 188.823 25.8896C188.669 25.5321 188.413 25.2655 188.057 25.0901C187.7 24.9113 187.277 24.8219 186.786 24.8219C186.17 24.8219 185.673 24.9586 185.293 25.2318C184.916 25.5051 184.664 25.8812 184.536 26.3602L185.388 26.6183C185.486 26.2843 185.659 26.0414 185.908 25.8896C186.157 25.7378 186.446 25.6619 186.776 25.6619C187.246 25.6619 187.584 25.7682 187.789 25.9807C187.998 26.1899 188.107 26.5121 188.117 26.9472C187.714 27.0046 187.29 27.0653 186.846 27.1294C186.406 27.1901 186.014 27.266 185.671 27.3571C185.257 27.4786 184.931 27.6692 184.692 27.9289C184.454 28.1853 184.334 28.5294 184.334 28.9612C184.334 29.2547 184.403 29.5246 184.541 29.7708C184.682 30.0171 184.889 30.2161 185.161 30.368C185.437 30.5164 185.778 30.5906 186.185 30.5906ZM186.322 29.8366C185.935 29.8366 185.656 29.7472 185.484 29.5684C185.313 29.3863 185.227 29.1822 185.227 28.9561C185.227 28.6998 185.311 28.5041 185.479 28.3692C185.651 28.2308 185.849 28.1263 186.074 28.0554C186.34 27.9812 186.649 27.9188 187.003 27.8682C187.356 27.8176 187.724 27.767 188.107 27.7164C188.107 27.8412 188.1 27.9829 188.087 28.1414C188.077 28.3 188.053 28.4451 188.016 28.5766C187.952 28.914 187.774 29.2092 187.482 29.4622C187.192 29.7118 186.806 29.8366 186.322 29.8366Z" fill="#B8C2CF"/>
<path d="M61.8626 36.1063H61.1261L58.2661 40.0786V36.1063H57.3985V41.5713H58.14L60.995 37.5434V41.5713H61.8626V36.1063Z" fill="#B8C2CF"/>
<path d="M65.6934 41.5713H66.5913V36.9614H69.2597V41.5713H70.1575V36.1063H65.6934V41.5713Z" fill="#B8C2CF"/>
<path d="M71.7669 44.0002H72.6698V41.0653C72.8649 41.2711 73.0952 41.433 73.3609 41.5511C73.6299 41.6658 73.9342 41.7231 74.2739 41.7231C74.7817 41.7231 75.2172 41.5966 75.5803 41.3436C75.9469 41.0872 76.2277 40.7414 76.4227 40.3063C76.6178 39.8711 76.7153 39.3802 76.7153 38.8337C76.7153 38.2872 76.6178 37.7964 76.4227 37.3612C76.2277 36.926 75.9469 36.5836 75.5803 36.334C75.2172 36.081 74.7834 35.9545 74.2789 35.9545C73.909 35.9545 73.5812 36.0219 73.2953 36.1569C73.0095 36.2918 72.7674 36.479 72.569 36.7186V36.1063H71.7669V44.0002ZM74.1629 40.8983C73.6148 40.8983 73.2112 40.7043 72.9523 40.3164C72.6967 39.9284 72.569 39.4342 72.569 38.8337C72.569 38.2299 72.6967 37.7374 72.9523 37.3561C73.2112 36.9716 73.6064 36.7793 74.1377 36.7793C74.5076 36.7793 74.8119 36.8704 75.0507 37.0525C75.2928 37.2347 75.471 37.481 75.5854 37.7913C75.7031 38.1017 75.7619 38.4492 75.7619 38.8337C75.7619 39.2217 75.7031 39.5725 75.5854 39.8863C75.4677 40.1966 75.2911 40.4429 75.0557 40.6251C74.8203 40.8072 74.5227 40.8983 74.1629 40.8983Z" fill="#B8C2CF"/>
<path d="M80.3431 41.7231C80.8846 41.7231 81.3503 41.6017 81.7404 41.3588C82.1338 41.1159 82.4365 40.7769 82.6483 40.3417C82.8636 39.9065 82.9712 39.4039 82.9712 38.8337C82.9712 38.2704 82.8652 37.7728 82.6534 37.341C82.4449 36.9058 82.1439 36.5668 81.7505 36.3239C81.357 36.0776 80.8879 35.9545 80.3431 35.9545C79.8118 35.9545 79.3494 36.0759 78.956 36.3188C78.5625 36.5583 78.2582 36.894 78.043 37.3258C77.8278 37.7576 77.7202 38.2602 77.7202 38.8337C77.7202 39.3971 77.8244 39.8964 78.0329 40.3316C78.2448 40.7668 78.5474 41.1075 78.9409 41.3537C79.3343 41.6 79.8017 41.7231 80.3431 41.7231ZM80.3431 40.868C79.795 40.868 79.3797 40.6841 79.0972 40.3164C78.8148 39.9453 78.6735 39.4511 78.6735 38.8337C78.6735 38.2366 78.8097 37.7508 79.0821 37.3764C79.3545 36.9986 79.7748 36.8096 80.3431 36.8096C80.9014 36.8096 81.32 36.9935 81.5991 37.3612C81.8783 37.7289 82.0178 38.2198 82.0178 38.8337C82.0178 39.4342 81.8783 39.9234 81.5991 40.3012C81.3234 40.679 80.9047 40.868 80.3431 40.868Z" fill="#B8C2CF"/>
<path d="M86.6442 41.7231C87.1722 41.7231 87.648 41.5916 88.0717 41.3284C88.4954 41.0619 88.8149 40.6875 89.0301 40.2051L88.1675 39.9065C87.8548 40.5475 87.3336 40.868 86.6038 40.868C86.1028 40.868 85.7093 40.7145 85.4235 40.4075C85.141 40.0971 84.9813 39.6586 84.9443 39.0918H89.1209C89.1478 38.4441 89.0637 37.8858 88.8687 37.4169C88.677 36.948 88.3878 36.587 88.0011 36.334C87.6177 36.081 87.152 35.9545 86.6038 35.9545C86.0759 35.9545 85.6152 36.0742 85.2217 36.3137C84.8283 36.5499 84.5223 36.8872 84.3037 37.3258C84.0885 37.761 83.9809 38.2771 83.9809 38.8742C83.9809 39.4443 84.0902 39.9436 84.3087 40.3721C84.5307 40.7971 84.8417 41.1294 85.2419 41.3689C85.6421 41.6051 86.1095 41.7231 86.6442 41.7231ZM86.6341 36.7641C87.5589 36.7641 88.0767 37.2988 88.1877 38.3682H84.9594C85.0233 37.8487 85.1965 37.4523 85.479 37.179C85.7615 36.9024 86.1465 36.7641 86.6341 36.7641Z" fill="#B8C2CF"/>
<path d="M90.4407 41.5713H91.3537V38.94L93.8303 41.5713H95.0863L92.3978 38.8388L94.8039 36.1063H93.6387L91.3537 38.7376V36.1063H90.4457L90.4407 41.5713Z" fill="#B8C2CF"/>
<path d="M97.2328 41.5713H98.1307V36.926H100.027V36.1063H95.3362V36.926H97.2328V41.5713Z" fill="#B8C2CF"/>
<path d="M105.643 36.1063H104.907L102.046 40.0786V36.1063H101.179V41.5713H101.92L104.775 37.5434V41.5713H105.643V36.1063Z" fill="#B8C2CF"/>
<path d="M107.252 44.0002H108.155V41.0653C108.35 41.2711 108.581 41.433 108.846 41.5511C109.115 41.6658 109.42 41.7231 109.759 41.7231C110.267 41.7231 110.703 41.5966 111.066 41.3436C111.432 41.0872 111.713 40.7414 111.908 40.3063C112.103 39.8711 112.201 39.3802 112.201 38.8337C112.201 38.2872 112.103 37.7964 111.908 37.3612C111.713 36.926 111.432 36.5836 111.066 36.334C110.703 36.081 110.269 35.9545 109.764 35.9545C109.394 35.9545 109.067 36.0219 108.781 36.1569C108.495 36.2918 108.253 36.479 108.054 36.7186V36.1063H107.252V44.0002ZM109.648 40.8983C109.1 40.8983 108.697 40.7043 108.438 40.3164C108.182 39.9284 108.054 39.4342 108.054 38.8337C108.054 38.2299 108.182 37.7374 108.438 37.3561C108.697 36.9716 109.092 36.7793 109.623 36.7793C109.993 36.7793 110.297 36.8704 110.536 37.0525C110.778 37.2347 110.956 37.481 111.071 37.7913C111.189 38.1017 111.247 38.4492 111.247 38.8337C111.247 39.2217 111.189 39.5725 111.071 39.8863C110.953 40.1966 110.777 40.4429 110.541 40.6251C110.306 40.8072 110.008 40.8983 109.648 40.8983Z" fill="#B8C2CF"/>
<path d="M115.829 41.7231C116.37 41.7231 116.836 41.6017 117.226 41.3588C117.619 41.1159 117.922 40.7769 118.134 40.3417C118.349 39.9065 118.457 39.4039 118.457 38.8337C118.457 38.2704 118.351 37.7728 118.139 37.341C117.93 36.9058 117.629 36.5668 117.236 36.3239C116.842 36.0776 116.373 35.9545 115.829 35.9545C115.297 35.9545 114.835 36.0759 114.441 36.3188C114.048 36.5583 113.744 36.894 113.528 37.3258C113.313 37.7576 113.206 38.2602 113.206 38.8337C113.206 39.3971 113.31 39.8964 113.518 40.3316C113.73 40.7668 114.033 41.1075 114.426 41.3537C114.82 41.6 115.287 41.7231 115.829 41.7231ZM115.829 40.868C115.28 40.868 114.865 40.6841 114.583 40.3164C114.3 39.9453 114.159 39.4511 114.159 38.8337C114.159 38.2366 114.295 37.7508 114.568 37.3764C114.84 36.9986 115.26 36.8096 115.829 36.8096C116.387 36.8096 116.805 36.9935 117.085 37.3612C117.364 37.7289 117.503 38.2198 117.503 38.8337C117.503 39.4342 117.364 39.9234 117.085 40.3012C116.809 40.679 116.39 40.868 115.829 40.868Z" fill="#B8C2CF"/>
<path d="M119.764 41.5713H122.347C122.494 41.5713 122.648 41.5663 122.806 41.5562C122.964 41.5427 123.108 41.5174 123.239 41.4802C123.552 41.3925 123.798 41.2272 123.976 40.9843C124.154 40.7415 124.243 40.4345 124.243 40.0634C124.243 39.7733 124.188 39.5337 124.077 39.3448C123.966 39.1525 123.816 39.0041 123.628 38.8995C123.503 38.8287 123.384 38.7831 123.27 38.7629C123.397 38.7123 123.513 38.6347 123.618 38.5301C123.729 38.4222 123.816 38.2923 123.88 38.1405C123.944 37.9853 123.976 37.8048 123.976 37.599C123.976 37.2313 123.88 36.9277 123.688 36.6882C123.497 36.4487 123.256 36.2884 122.967 36.2075C122.836 36.1704 122.69 36.1451 122.528 36.1316C122.37 36.1147 122.222 36.1063 122.084 36.1063H119.764V41.5713ZM120.672 38.4694V36.8501H121.948C121.985 36.8501 122.069 36.8535 122.2 36.8602C122.331 36.867 122.452 36.8889 122.563 36.926C122.721 36.98 122.841 37.0745 122.922 37.2094C123.002 37.341 123.043 37.4928 123.043 37.6648C123.043 37.8234 123.006 37.9701 122.932 38.1051C122.858 38.2366 122.745 38.3311 122.594 38.3884C122.516 38.4188 122.424 38.4407 122.316 38.4542C122.212 38.4643 122.115 38.4694 122.024 38.4694H120.672ZM120.672 40.8376V39.2133H122.215C122.276 39.2133 122.347 39.2149 122.427 39.2183C122.511 39.2217 122.59 39.2335 122.664 39.2537C122.856 39.2875 123.012 39.3718 123.133 39.5068C123.254 39.6417 123.315 39.8171 123.315 40.033C123.315 40.1949 123.275 40.3468 123.194 40.4884C123.117 40.6268 122.991 40.7195 122.816 40.7668C122.738 40.7904 122.649 40.8089 122.548 40.8224C122.451 40.8325 122.367 40.8376 122.296 40.8376H120.672Z" fill="#B8C2CF"/>
<path d="M127.007 41.7231C127.915 41.7231 128.587 41.3892 129.024 40.7212V41.5713H129.821V38.1911C129.821 37.9752 129.811 37.7694 129.791 37.5737C129.771 37.3747 129.722 37.1908 129.645 37.0222C129.49 36.6646 129.235 36.3981 128.878 36.2227C128.522 36.0439 128.098 35.9545 127.607 35.9545C126.992 35.9545 126.494 36.0911 126.114 36.3643C125.737 36.6376 125.485 37.0137 125.357 37.4928L126.21 37.7508C126.307 37.4169 126.481 37.174 126.729 37.0222C126.978 36.8704 127.267 36.7945 127.597 36.7945C128.068 36.7945 128.406 36.9007 128.611 37.1133C128.819 37.3224 128.929 37.6446 128.939 38.0798C128.535 38.1371 128.111 38.1978 127.668 38.2619C127.227 38.3227 126.835 38.3986 126.492 38.4896C126.079 38.6111 125.752 38.8017 125.514 39.0615C125.275 39.3178 125.156 39.6619 125.156 40.0937C125.156 40.3872 125.225 40.6571 125.362 40.9034C125.504 41.1496 125.71 41.3487 125.983 41.5005C126.259 41.6489 126.6 41.7231 127.007 41.7231ZM127.143 40.9692C126.756 40.9692 126.477 40.8798 126.306 40.701C126.134 40.5188 126.048 40.3147 126.048 40.0887C126.048 39.8323 126.132 39.6366 126.301 39.5017C126.472 39.3634 126.671 39.2588 126.896 39.188C127.161 39.1137 127.471 39.0513 127.824 39.0007C128.177 38.9501 128.545 38.8995 128.929 38.8489C128.929 38.9737 128.922 39.1154 128.908 39.274C128.898 39.4325 128.875 39.5776 128.838 39.7092C128.774 40.0465 128.596 40.3417 128.303 40.5947C128.014 40.8443 127.627 40.9692 127.143 40.9692Z" fill="#B8C2CF"/>
<path d="M131.33 41.5713H132.228V39.2639H135.093V41.5713H135.991V36.1063H135.093V38.4087H132.228V36.1063H131.33V41.5713Z" fill="#B8C2CF"/>
<path d="M142.064 36.1063H141.328L138.468 40.0786V36.1063H137.6V41.5713H138.342L141.197 37.5434V41.5713H142.064V36.1063Z" fill="#B8C2CF"/>
<path d="M146.039 41.7231C146.567 41.7231 147.043 41.5916 147.467 41.3284C147.891 41.0619 148.21 40.6875 148.425 40.2051L147.563 39.9065C147.25 40.5475 146.729 40.868 145.999 40.868C145.498 40.868 145.105 40.7145 144.819 40.4075C144.536 40.0971 144.377 39.6586 144.34 39.0918H148.516C148.543 38.4441 148.459 37.8858 148.264 37.4169C148.072 36.948 147.783 36.587 147.396 36.334C147.013 36.081 146.547 35.9545 145.999 35.9545C145.471 35.9545 145.01 36.0742 144.617 36.3137C144.224 36.5499 143.918 36.8872 143.699 37.3258C143.484 37.761 143.376 38.2771 143.376 38.8742C143.376 39.4443 143.485 39.9436 143.704 40.3721C143.926 40.7971 144.237 41.1294 144.637 41.3689C145.037 41.6051 145.505 41.7231 146.039 41.7231ZM146.029 36.7641C146.954 36.7641 147.472 37.2988 147.583 38.3682H144.355C144.419 37.8487 144.592 37.4523 144.874 37.179C145.157 36.9024 145.542 36.7641 146.029 36.7641Z" fill="#B8C2CF"/>
</svg>
