<svg width="19" height="20" viewBox="0 0 19 20" fill="none" xmlns="http://www.w3.org/2000/svg">
<path d="M6.2963 13.125C6.2963 12.9592 6.36263 12.8003 6.48071 12.6831C6.59879 12.5658 6.75894 12.5 6.92593 12.5H9.44444C9.61143 12.5 9.77158 12.5658 9.88966 12.6831C10.0077 12.8003 10.0741 12.9592 10.0741 13.125C10.0741 13.2908 10.0077 13.4497 9.88966 13.5669C9.77158 13.6842 9.61143 13.75 9.44444 13.75H6.92593C6.75894 13.75 6.59879 13.6842 6.48071 13.5669C6.36263 13.4497 6.2963 13.2908 6.2963 13.125ZM6.2963 10.625C6.2963 10.4592 6.36263 10.3003 6.48071 10.1831C6.59879 10.0658 6.75894 10 6.92593 10H13.2222C13.3892 10 13.5494 10.0658 13.6674 10.1831C13.7855 10.3003 13.8519 10.4592 13.8519 10.625C13.8519 10.7908 13.7855 10.9497 13.6674 11.0669C13.5494 11.1842 13.3892 11.25 13.2222 11.25H6.92593C6.75894 11.25 6.59879 11.1842 6.48071 11.0669C6.36263 10.9497 6.2963 10.7908 6.2963 10.625ZM6.2963 8.125C6.2963 7.95924 6.36263 7.80027 6.48071 7.68306C6.59879 7.56585 6.75894 7.5 6.92593 7.5H13.2222C13.3892 7.5 13.5494 7.56585 13.6674 7.68306C13.7855 7.80027 13.8519 7.95924 13.8519 8.125C13.8519 8.29076 13.7855 8.44973 13.6674 8.56694C13.5494 8.68415 13.3892 8.75 13.2222 8.75H6.92593C6.75894 8.75 6.59879 8.68415 6.48071 8.56694C6.36263 8.44973 6.2963 8.29076 6.2963 8.125ZM6.2963 5.625C6.2963 5.45924 6.36263 5.30027 6.48071 5.18306C6.59879 5.06585 6.75894 5 6.92593 5H13.2222C13.3892 5 13.5494 5.06585 13.6674 5.18306C13.7855 5.30027 13.8519 5.45924 13.8519 5.625C13.8519 5.79076 13.7855 5.94973 13.6674 6.06694C13.5494 6.18415 13.3892 6.25 13.2222 6.25H6.92593C6.75894 6.25 6.59879 6.18415 6.48071 6.06694C6.36263 5.94973 6.2963 5.79076 6.2963 5.625Z" fill="#FA5B01"/>
<path d="M3.77778 0H16.3704C17.0383 0 17.6789 0.263392 18.1512 0.732233C18.6235 1.20107 18.8889 1.83696 18.8889 2.5V17.5C18.8889 18.163 18.6235 18.7989 18.1512 19.2678C17.6789 19.7366 17.0383 20 16.3704 20H3.77778C3.10983 20 2.46923 19.7366 1.99692 19.2678C1.5246 18.7989 1.25926 18.163 1.25926 17.5V16.25H2.51852V17.5C2.51852 17.8315 2.65119 18.1495 2.88735 18.3839C3.1235 18.6183 3.4438 18.75 3.77778 18.75H16.3704C16.7043 18.75 17.0246 18.6183 17.2608 18.3839C17.497 18.1495 17.6296 17.8315 17.6296 17.5V2.5C17.6296 2.16848 17.497 1.85054 17.2608 1.61612C17.0246 1.3817 16.7043 1.25 16.3704 1.25H3.77778C3.4438 1.25 3.1235 1.3817 2.88735 1.61612C2.65119 1.85054 2.51852 2.16848 2.51852 2.5V3.75H1.25926V2.5C1.25926 1.83696 1.5246 1.20107 1.99692 0.732233C2.46923 0.263392 3.10983 0 3.77778 0Z" fill="#FA5B01"/>
<path d="M1.25926 6.25V5.625C1.25926 5.45924 1.3256 5.30027 1.44367 5.18306C1.56175 5.06585 1.7219 5 1.88889 5C2.05588 5 2.21603 5.06585 2.3341 5.18306C2.45218 5.30027 2.51852 5.45924 2.51852 5.625V6.25H3.14815C3.31514 6.25 3.47529 6.31585 3.59336 6.43306C3.71144 6.55027 3.77778 6.70924 3.77778 6.875C3.77778 7.04076 3.71144 7.19973 3.59336 7.31694C3.47529 7.43415 3.31514 7.5 3.14815 7.5H0.62963C0.462642 7.5 0.302493 7.43415 0.184414 7.31694C0.0663358 7.19973 0 7.04076 0 6.875C0 6.70924 0.0663358 6.55027 0.184414 6.43306C0.302493 6.31585 0.462642 6.25 0.62963 6.25H1.25926ZM1.25926 10V9.375C1.25926 9.20924 1.3256 9.05027 1.44367 8.93306C1.56175 8.81585 1.7219 8.75 1.88889 8.75C2.05588 8.75 2.21603 8.81585 2.3341 8.93306C2.45218 9.05027 2.51852 9.20924 2.51852 9.375V10H3.14815C3.31514 10 3.47529 10.0658 3.59336 10.1831C3.71144 10.3003 3.77778 10.4592 3.77778 10.625C3.77778 10.7908 3.71144 10.9497 3.59336 11.0669C3.47529 11.1842 3.31514 11.25 3.14815 11.25H0.62963C0.462642 11.25 0.302493 11.1842 0.184414 11.0669C0.0663358 10.9497 0 10.7908 0 10.625C0 10.4592 0.0663358 10.3003 0.184414 10.1831C0.302493 10.0658 0.462642 10 0.62963 10H1.25926ZM1.25926 13.75V13.125C1.25926 12.9592 1.3256 12.8003 1.44367 12.6831C1.56175 12.5658 1.7219 12.5 1.88889 12.5C2.05588 12.5 2.21603 12.5658 2.3341 12.6831C2.45218 12.8003 2.51852 12.9592 2.51852 13.125V13.75H3.14815C3.31514 13.75 3.47529 13.8158 3.59336 13.9331C3.71144 14.0503 3.77778 14.2092 3.77778 14.375C3.77778 14.5408 3.71144 14.6997 3.59336 14.8169C3.47529 14.9342 3.31514 15 3.14815 15H0.62963C0.462642 15 0.302493 14.9342 0.184414 14.8169C0.0663358 14.6997 0 14.5408 0 14.375C0 14.2092 0.0663358 14.0503 0.184414 13.9331C0.302493 13.8158 0.462642 13.75 0.62963 13.75H1.25926Z" fill="#FA5B01"/>
</svg>
