<svg width="51" height="51" viewBox="0 0 51 51" fill="none" xmlns="http://www.w3.org/2000/svg">
<path fill-rule="evenodd" clip-rule="evenodd" d="M20.7191 38.2495C23.0214 38.2495 25.3012 37.7961 27.4282 36.915C29.5552 36.034 31.4879 34.7427 33.1158 33.1148C34.7438 31.4869 36.0352 29.5543 36.9162 27.4273C37.7972 25.3004 38.2507 23.0207 38.2507 20.7185C38.2507 18.4163 37.7972 16.1366 36.9162 14.0097C36.0352 11.8827 34.7438 9.95009 33.1158 8.32218C31.4879 6.69427 29.5552 5.40295 27.4282 4.52193C25.3012 3.64091 23.0214 3.18746 20.7191 3.18746C16.0695 3.18746 11.6102 5.03447 8.32244 8.32218C5.03463 11.6099 3.18756 16.069 3.18756 20.7185C3.18756 25.368 5.03463 29.8271 8.32244 33.1148C11.6102 36.4025 16.0695 38.2495 20.7191 38.2495ZM41.4383 20.7185C41.4383 26.2134 39.2554 31.4832 35.3698 35.3687C31.4842 39.2541 26.2142 41.437 20.7191 41.437C15.2241 41.437 9.95409 39.2541 6.06849 35.3687C2.1829 31.4832 0 26.2134 0 20.7185C0 15.2236 2.1829 9.95378 6.06849 6.06831C9.95409 2.18283 15.2241 0 20.7191 0C26.2142 0 31.4842 2.18283 35.3698 6.06831C39.2554 9.95378 41.4383 15.2236 41.4383 20.7185Z" fill="white" fill-opacity="0.75"/>
<path d="M32.9721 37.4272C33.0677 37.5546 33.1697 37.6758 33.2845 37.7937L45.5566 50.0654C46.1543 50.6635 46.9651 50.9997 47.8107 51C48.6562 51.0003 49.4673 50.6647 50.0654 50.067C50.6635 49.4693 50.9997 48.6586 51 47.813C51.0003 46.9675 50.6647 46.1565 50.067 45.5584L37.7949 33.2866C37.6809 33.1713 37.5584 33.0647 37.4283 32.9679C36.1779 34.6728 34.6753 36.1775 32.9721 37.4303V37.4272Z" fill="white" fill-opacity="0.75"/>
</svg>
