<svg width="189" height="49" viewBox="0 0 189 49" fill="none" xmlns="http://www.w3.org/2000/svg">
<path d="M22.705 0.510773L0.546875 10.9886L6.55876 32.9749L22.705 47.9188L38.8512 32.9749L44.863 10.9886L22.705 0.510773Z" fill="#1F2A38"/>
<path d="M6.55859 32.9749L22.7048 0.510773L38.851 32.9749H22.7048H6.55859Z" fill="#FA5B01"/>
<path fill-rule="evenodd" clip-rule="evenodd" d="M22.7055 0L45.411 10.7367L39.2622 33.2239L22.7055 48.5476L6.14885 33.2239L0 10.7367L22.7055 0ZM1.09484 11.2403L6.96976 32.7257L22.7055 47.2896L38.4412 32.7257L44.3162 11.2403L22.7055 1.02127L1.09484 11.2403Z" fill="#FA5B01"/>
<path d="M56.9531 14.6251L57.7613 13.2652C58.8174 13.9401 59.8087 14.2776 60.7355 14.2776C61.5113 14.2776 62.174 14.0308 62.7236 13.5372C63.2732 13.0436 63.6018 12.2378 63.7096 11.1196H59.3454V9.65397H63.7096C63.6234 8.72723 63.3378 7.99692 62.8529 7.46303C62.368 6.91908 61.673 6.6471 60.7678 6.6471C60.2398 6.6471 59.6417 6.73776 58.9736 6.91908L58.6342 8.43007H57.2602L57.1148 5.83117C58.6234 5.27714 59.9758 5.00012 61.1719 5.00012C62.1956 5.00012 63.0792 5.20662 63.8228 5.61963C64.5771 6.02256 65.159 6.61688 65.5684 7.40259C65.9779 8.18831 66.1827 9.1503 66.1827 10.2886C66.1827 11.5276 65.9456 12.5752 65.4715 13.4314C65.0081 14.2776 64.3831 14.9172 63.5965 15.3504C62.8206 15.7835 61.9585 16.0001 61.0102 16.0001C60.3314 16.0001 59.6471 15.8893 58.9574 15.6677C58.2678 15.436 57.5997 15.0885 56.9531 14.6251Z" fill="#1F2A38"/>
<path d="M72.3967 14.7309V15.8188H67.7576V14.7309L68.9538 14.4136V6.63199L67.7576 6.3449V5.25699L72.3967 5.18144V6.23913L71.2652 6.60177V9.60864H72.7846L74.7081 6.55644L73.6898 6.3449V5.25699L78.054 5.18144V6.26935L76.9387 6.60177L74.498 10.2735L77.5691 14.4438L78.5712 14.7309V15.8188H73.9807V14.7309L74.9505 14.4136L72.6876 11.165H71.2652V14.3834L72.3967 14.7309Z" fill="#1F2A38"/>
<path d="M83.9183 16.0001C83.0347 16.0001 82.2211 15.7936 81.4776 15.3806C80.7448 14.9676 80.1575 14.3582 79.7157 13.5523C79.2847 12.7465 79.0692 11.7492 79.0692 10.5606C79.0692 9.39206 79.2847 8.39481 79.7157 7.5688C80.1467 6.7428 80.7556 6.10818 81.5422 5.66496C82.3289 5.22173 83.2502 5.00012 84.3062 5.00012C85.3946 5.00012 86.6069 5.26203 87.9431 5.78584L87.7976 8.50562H86.4237L86.0843 6.96441C85.4593 6.76294 84.8935 6.66221 84.3871 6.66221C83.4603 6.66221 82.7545 6.98455 82.2696 7.62924C81.7955 8.26386 81.5584 9.1503 81.5584 10.2886C81.5584 11.6183 81.8332 12.6105 82.3827 13.2652C82.9431 13.92 83.6489 14.2474 84.5002 14.2474C84.9205 14.2474 85.3677 14.1668 85.8418 14.0056C86.3159 13.8344 86.7847 13.5775 87.2481 13.235L88.1047 14.4891C87.4366 14.9928 86.7416 15.3705 86.0196 15.6224C85.3084 15.8742 84.608 16.0001 83.9183 16.0001Z" fill="#1F2A38"/>
<path d="M89.5245 15.8188V14.7309L90.7206 14.4136V6.6471L89.5245 6.3449V5.25699L93.0321 5.18144H100.872V6.26935L99.6916 6.63199V14.4136L100.872 14.7309V15.8188H96.184V14.7309L97.364 14.3985V6.73776H93.0321V14.3985L94.212 14.7309V15.8188H89.5245Z" fill="#1F2A38"/>
<path d="M109.445 12.9781H110.819L110.787 15.8188H102.365V14.7309L103.561 14.4136V6.6471L102.365 6.3449V5.25699L105.824 5.18144H110.609V7.90122H109.235L108.976 6.73776H105.873V9.65397H109.348V11.1498H105.873V14.2625H109.17L109.445 12.9781Z" fill="#1F2A38"/>
<path d="M116.854 12.0564H116.046V14.4136L117.582 14.7309V15.8188H112.538V14.7309L113.735 14.4136V6.63199L112.538 6.3449V5.25699L116.094 5.18144H117.565C118.46 5.18144 119.192 5.3275 119.764 5.61963C120.335 5.90168 120.755 6.29454 121.024 6.7982C121.305 7.29179 121.445 7.84582 121.445 8.46029C121.445 9.14527 121.278 9.75974 120.944 10.3037C120.62 10.8376 120.119 11.2657 119.44 11.588C118.772 11.9003 117.91 12.0564 116.854 12.0564ZM117.194 6.72265H116.046V10.5001H116.87C117.582 10.5001 118.126 10.3188 118.503 9.95617C118.891 9.59353 119.085 9.11001 119.085 8.50562C119.085 7.95159 118.923 7.51844 118.6 7.20617C118.287 6.88382 117.819 6.72265 117.194 6.72265Z" fill="#1F2A38"/>
<path d="M124.428 15.8188V14.7309L125.801 14.4136V6.73776H124.056L123.716 8.23364H122.342V5.18144H131.588V8.23364H130.214L129.875 6.73776H128.129V14.4136L129.503 14.7309V15.8188H124.428Z" fill="#1F2A38"/>
<path d="M132.537 15.8188V14.7309L133.733 14.4136V6.6471L132.537 6.3449V5.25699L137.225 5.18144V6.26935L136.045 6.63199V9.62375H140.603V6.6471L139.407 6.3449V5.25699L144.094 5.18144V6.26935L142.915 6.63199V14.4136L144.094 14.7309V15.8188H139.407V14.7309L140.603 14.3985V11.1801H136.045V14.3985L137.225 14.7309V15.8188H132.537Z" fill="#1F2A38"/>
<path d="M150.691 16.0001C149.161 16.0001 147.943 15.5468 147.038 14.6402C146.133 13.7236 145.68 12.3889 145.68 10.6361C145.68 9.38703 145.907 8.34444 146.359 7.50836C146.812 6.67228 147.437 6.04774 148.234 5.63474C149.042 5.21166 149.974 5.00012 151.031 5.00012C152.076 5.00012 152.981 5.20159 153.746 5.60452C154.522 6.00745 155.12 6.60681 155.54 7.40259C155.971 8.18831 156.187 9.15534 156.187 10.3037C156.187 11.4823 155.955 12.4997 155.492 13.3559C155.039 14.2121 154.398 14.8669 153.568 15.3202C152.749 15.7735 151.79 16.0001 150.691 16.0001ZM150.869 14.338C151.397 14.338 151.876 14.2172 152.307 13.9754C152.739 13.7236 153.078 13.3106 153.326 12.7364C153.574 12.1521 153.698 11.3715 153.698 10.3944C153.698 9.48776 153.584 8.76248 153.358 8.21853C153.132 7.6645 152.809 7.26661 152.388 7.02485C151.979 6.78309 151.494 6.66221 150.934 6.66221C150.395 6.66221 149.915 6.78309 149.495 7.02485C149.085 7.26661 148.762 7.66954 148.525 8.23364C148.288 8.79774 148.17 9.57338 148.17 10.5606C148.17 11.9104 148.407 12.8774 148.881 13.4617C149.366 14.0459 150.028 14.338 150.869 14.338Z" fill="#1F2A38"/>
<path d="M162.675 16.0001C161.792 16.0001 160.978 15.7936 160.235 15.3806C159.502 14.9676 158.915 14.3582 158.473 13.5523C158.042 12.7465 157.826 11.7492 157.826 10.5606C157.826 9.39206 158.042 8.39481 158.473 7.5688C158.904 6.7428 159.513 6.10818 160.299 5.66496C161.086 5.22173 162.007 5.00012 163.063 5.00012C164.152 5.00012 165.364 5.26203 166.7 5.78584L166.555 8.50562H165.181L164.841 6.96441C164.216 6.76294 163.651 6.66221 163.144 6.66221C162.217 6.66221 161.512 6.98455 161.027 7.62924C160.552 8.26386 160.315 9.1503 160.315 10.2886C160.315 11.6183 160.59 12.6105 161.14 13.2652C161.7 13.92 162.406 14.2474 163.257 14.2474C163.677 14.2474 164.125 14.1668 164.599 14.0056C165.073 13.8344 165.542 13.5775 166.005 13.235L166.862 14.4891C166.194 14.9928 165.499 15.3705 164.777 15.6224C164.065 15.8742 163.365 16.0001 162.675 16.0001Z" fill="#1F2A38"/>
<path d="M169.824 15.8188V14.7309L171.198 14.4136V6.73776H169.452L169.113 8.23364H167.739V5.18144H176.984V8.23364H175.611L175.271 6.73776H173.525V14.4136L174.899 14.7309V15.8188H169.824Z" fill="#1F2A38"/>
<path d="M177.934 15.8188V14.7309L179.13 14.4136V6.6471L177.934 6.3449V5.25699L182.621 5.18144V6.26935L181.441 6.63199V9.29133H183.041C184.378 9.29133 185.364 9.56331 185.999 10.1073C186.635 10.6411 186.953 11.3966 186.953 12.3737C186.953 13.4012 186.581 14.2323 185.838 14.8669C185.094 15.5015 183.941 15.8188 182.379 15.8188H177.934ZM182.718 10.7419H181.441V14.2625H182.379C183.101 14.2625 183.65 14.1164 184.027 13.8243C184.405 13.5221 184.593 13.0638 184.593 12.4493C184.593 11.855 184.432 11.4218 184.108 11.1498C183.796 10.8779 183.332 10.7419 182.718 10.7419Z" fill="#1F2A38"/>
<path d="M60.3428 30.5905C61.1835 30.5905 61.8746 30.3763 62.416 29.9478C62.9607 29.516 63.3357 28.9392 63.5408 28.2172L62.6278 27.9743C62.4799 28.5141 62.2142 28.9425 61.8309 29.2596C61.4509 29.5734 60.9548 29.7302 60.3428 29.7302C59.8014 29.7302 59.3491 29.6071 58.9859 29.3608C58.6228 29.1146 58.3504 28.7705 58.1688 28.3286C57.9872 27.8866 57.8981 27.3755 57.9014 26.7953C57.9048 26.2117 57.9973 25.7006 58.1789 25.2621C58.3605 24.8201 58.6312 24.476 58.991 24.2298C59.3508 23.9835 59.8014 23.8604 60.3428 23.8604C60.9548 23.8604 61.4509 24.0172 61.8309 24.331C62.2142 24.6447 62.4799 25.0731 62.6278 25.6163L63.5408 25.3734C63.3357 24.6481 62.9607 24.0712 62.416 23.6428C61.8746 23.2143 61.1835 23.0001 60.3428 23.0001C59.6198 23.0001 59.0044 23.1604 58.4966 23.4808C57.9922 23.8013 57.6089 24.2466 57.3466 24.8167C57.0843 25.3869 56.9531 26.0464 56.9531 26.7953C56.9531 27.5442 57.0843 28.2037 57.3466 28.7739C57.6089 29.344 57.9922 29.7893 58.4966 30.1098C59.0044 30.4302 59.6198 30.5905 60.3428 30.5905Z" fill="#606A78"/>
<path d="M66.2915 30.4387H67.1894V25.7934H69.086V24.9736H64.3949V25.7934H66.2915V30.4387Z" fill="#606A78"/>
<path d="M70.2375 32.8676H71.1404V29.9327C71.3355 30.1384 71.5658 30.3004 71.8315 30.4184C72.1005 30.5331 72.4049 30.5905 72.7445 30.5905C73.2523 30.5905 73.6878 30.464 74.0509 30.211C74.4175 29.9546 74.6983 29.6088 74.8933 29.1736C75.0884 28.7384 75.1859 28.2476 75.1859 27.7011C75.1859 27.1546 75.0884 26.6637 74.8933 26.2286C74.6983 25.7934 74.4175 25.451 74.0509 25.2013C73.6878 24.9483 73.254 24.8218 72.7495 24.8218C72.3796 24.8218 72.0518 24.8893 71.7659 25.0242C71.4801 25.1592 71.238 25.3464 71.0396 25.5859V24.9736H70.2375V32.8676ZM72.6335 29.7657C72.0854 29.7657 71.6819 29.5717 71.4229 29.1837C71.1673 28.7958 71.0396 28.3016 71.0396 27.7011C71.0396 27.0972 71.1673 26.6047 71.4229 26.2235C71.6819 25.8389 72.077 25.6466 72.6083 25.6466C72.9782 25.6466 73.2825 25.7377 73.5213 25.9199C73.7634 26.102 73.9416 26.3483 74.056 26.6587C74.1737 26.969 74.2325 27.3165 74.2325 27.7011C74.2325 28.089 74.1737 28.4399 74.056 28.7536C73.9383 29.064 73.7617 29.3102 73.5263 29.4924C73.2909 29.6746 72.9933 29.7657 72.6335 29.7657Z" fill="#606A78"/>
<path d="M78.8138 30.5905C79.3552 30.5905 79.8209 30.469 80.211 30.2261C80.6044 29.9833 80.9071 29.6442 81.1189 29.209C81.3342 28.7739 81.4418 28.2712 81.4418 27.7011C81.4418 27.1377 81.3358 26.6401 81.124 26.2083C80.9155 25.7731 80.6145 25.4341 80.2211 25.1912C79.8276 24.9449 79.3585 24.8218 78.8138 24.8218C78.2824 24.8218 77.82 24.9433 77.4266 25.1861C77.0332 25.4257 76.7288 25.7613 76.5136 26.1931C76.2984 26.6249 76.1908 27.1276 76.1908 27.7011C76.1908 28.2645 76.295 28.7637 76.5035 29.1989C76.7154 29.6341 77.018 29.9748 77.4115 30.2211C77.8049 30.4674 78.2723 30.5905 78.8138 30.5905ZM78.8138 29.7353C78.2656 29.7353 77.8503 29.5514 77.5678 29.1837C77.2854 28.8127 77.1441 28.3184 77.1441 27.7011C77.1441 27.104 77.2803 26.6182 77.5527 26.2437C77.8251 25.8659 78.2454 25.677 78.8138 25.677C79.372 25.677 79.7906 25.8608 80.0698 26.2286C80.3489 26.5963 80.4884 27.0871 80.4884 27.7011C80.4884 28.3016 80.3489 28.7907 80.0698 29.1686C79.794 29.5464 79.3753 29.7353 78.8138 29.7353Z" fill="#606A78"/>
<path d="M87.2132 24.9736H86.4767L83.6167 28.9459V24.9736H82.7491V30.4387H83.4906L86.3456 26.4107V30.4387H87.2132V24.9736Z" fill="#606A78"/>
<path d="M90.2703 30.4387H91.1681V25.7934H93.0648V24.9736H88.3737V25.7934H90.2703V30.4387Z" fill="#606A78"/>
<path d="M96.5821 30.5905C97.11 30.5905 97.5858 30.4589 98.0096 30.1958C98.4333 29.9293 98.7527 29.5548 98.9679 29.0724L98.1054 28.7739C97.7927 29.4148 97.2714 29.7353 96.5417 29.7353C96.0406 29.7353 95.6472 29.5818 95.3614 29.2748C95.0789 28.9645 94.9192 28.5259 94.8822 27.9592H99.0587C99.0856 27.3114 99.0016 26.7531 98.8065 26.2842C98.6149 25.8153 98.3257 25.4543 97.9389 25.2013C97.5556 24.9483 97.0898 24.8218 96.5417 24.8218C96.0137 24.8218 95.553 24.9416 95.1596 25.1811C94.7661 25.4172 94.4601 25.7546 94.2416 26.1931C94.0263 26.6283 93.9187 27.1445 93.9187 27.7416C93.9187 28.3117 94.028 28.811 94.2466 29.2394C94.4685 29.6645 94.7796 29.9967 95.1798 30.2363C95.5799 30.4724 96.0474 30.5905 96.5821 30.5905ZM96.572 25.6314C97.4967 25.6314 98.0146 26.1661 98.1256 27.2355H94.8973C94.9612 26.716 95.1344 26.3196 95.4168 26.0464C95.6993 25.7698 96.0844 25.6314 96.572 25.6314Z" fill="#606A78"/>
<path d="M99.8791 30.4387C100.246 30.5129 100.537 30.5196 100.752 30.4589C100.967 30.4016 101.132 30.2751 101.246 30.0794C101.36 29.8804 101.45 29.6155 101.513 29.2849C101.564 29.0286 101.611 28.7098 101.655 28.3286C101.702 27.9474 101.744 27.5392 101.781 27.104C101.821 26.6688 101.856 26.2437 101.887 25.8288H103.98V30.4387H104.878V24.9736H101.07C101.022 25.7866 100.97 26.5187 100.913 27.1698C100.859 27.8175 100.79 28.3808 100.706 28.8599C100.653 29.1669 100.577 29.3912 100.479 29.5329C100.382 29.6746 100.182 29.7184 99.8791 29.6645V30.4387Z" fill="#606A78"/>
<path d="M106.496 30.4387H108.62C108.775 30.4387 108.938 30.4353 109.109 30.4286C109.284 30.4184 109.439 30.3982 109.573 30.3678C109.967 30.2801 110.285 30.098 110.527 29.8213C110.772 29.5447 110.895 29.1702 110.895 28.698C110.895 28.1852 110.764 27.7972 110.502 27.5341C110.243 27.2676 109.903 27.0922 109.483 27.0078C109.358 26.9842 109.214 26.969 109.049 26.9623C108.887 26.9555 108.728 26.9522 108.57 26.9522H107.394V24.9736H106.491L106.496 30.4387ZM107.394 29.6948V27.696H108.635C108.733 27.696 108.835 27.6994 108.943 27.7061C109.051 27.7129 109.153 27.7281 109.251 27.7517C109.462 27.7989 109.636 27.8984 109.77 28.0502C109.905 28.202 109.972 28.418 109.972 28.698C109.972 28.9746 109.903 29.1888 109.765 29.3406C109.627 29.489 109.474 29.5869 109.306 29.6341C109.205 29.6611 109.093 29.678 108.968 29.6847C108.844 29.6914 108.733 29.6948 108.635 29.6948H107.394Z" fill="#606A78"/>
<path d="M112.053 30.4387H112.951V28.1312H115.816V30.4387H116.713V24.9736H115.816V27.276H112.951V24.9736H112.053V30.4387Z" fill="#606A78"/>
<path d="M119.877 30.5905C120.785 30.5905 121.457 30.2565 121.894 29.5886V30.4387H122.691V27.0584C122.691 26.8425 122.681 26.6367 122.661 26.4411C122.641 26.242 122.592 26.0582 122.515 25.8895C122.36 25.5319 122.105 25.2654 121.748 25.09C121.392 24.9112 120.968 24.8218 120.477 24.8218C119.862 24.8218 119.364 24.9584 118.984 25.2317C118.607 25.5049 118.355 25.8811 118.227 26.3601L119.08 26.6182C119.177 26.2842 119.351 26.0413 119.599 25.8895C119.848 25.7377 120.137 25.6618 120.467 25.6618C120.938 25.6618 121.276 25.7681 121.481 25.9806C121.689 26.1898 121.799 26.5119 121.809 26.9471C121.405 27.0045 120.981 27.0652 120.538 27.1293C120.097 27.19 119.705 27.2659 119.362 27.357C118.949 27.4784 118.622 27.669 118.384 27.9288C118.145 28.1852 118.026 28.5293 118.026 28.9611C118.026 29.2546 118.095 29.5245 118.232 29.7707C118.374 30.017 118.58 30.216 118.853 30.3678C119.129 30.5163 119.47 30.5905 119.877 30.5905ZM120.013 29.8365C119.626 29.8365 119.347 29.7471 119.176 29.5683C119.004 29.3861 118.918 29.1821 118.918 28.956C118.918 28.6996 119.002 28.504 119.171 28.369C119.342 28.2307 119.541 28.1261 119.766 28.0553C120.031 27.9811 120.341 27.9187 120.694 27.8681C121.047 27.8175 121.415 27.7669 121.799 27.7163C121.799 27.8411 121.792 27.9828 121.778 28.1413C121.768 28.2999 121.745 28.4449 121.708 28.5765C121.644 28.9139 121.466 29.209 121.173 29.4621C120.884 29.7117 120.497 29.8365 120.013 29.8365Z" fill="#606A78"/>
<path d="M123.902 30.4387H124.871L126.162 28.4551C126.239 28.4584 126.317 28.4601 126.394 28.4601H127.569V30.4387H128.472L128.467 24.9736H126.343C126.219 24.9736 126.071 24.977 125.9 24.9837C125.728 24.9905 125.558 25.0124 125.39 25.0495C125.013 25.1339 124.699 25.3194 124.447 25.6061C124.195 25.8895 124.069 26.2657 124.069 26.7346C124.069 27.1765 124.181 27.5307 124.406 27.7972C124.635 28.0604 124.921 28.2425 125.264 28.3437L123.902 30.4387ZM126.328 27.7163C126.248 27.7163 126.152 27.7129 126.041 27.7061C125.933 27.6994 125.826 27.6825 125.718 27.6555C125.513 27.6016 125.34 27.497 125.198 27.3418C125.061 27.1833 124.992 26.9775 124.992 26.7245C124.992 26.4613 125.062 26.2522 125.203 26.097C125.348 25.9384 125.501 25.8355 125.662 25.7883C125.777 25.7546 125.896 25.7343 126.021 25.7276C126.148 25.7208 126.251 25.7175 126.328 25.7175H127.569V27.7163H126.328Z" fill="#606A78"/>
<path d="M134.275 30.5905C134.819 30.5905 135.285 30.469 135.672 30.2261C136.059 29.9799 136.355 29.6408 136.56 29.209C136.765 28.7772 136.867 28.278 136.867 27.7112C136.867 27.1411 136.763 26.6401 136.555 26.2083C136.349 25.7731 136.054 25.4341 135.667 25.1912C135.28 24.9449 134.818 24.8218 134.28 24.8218C133.695 24.8218 133.194 24.9635 132.777 25.2469C132.363 25.5302 132.084 25.9182 131.939 26.4107L132.827 26.6789C132.945 26.3584 133.133 26.1122 133.392 25.9401C133.651 25.7647 133.95 25.677 134.29 25.677C134.781 25.677 135.157 25.8322 135.42 26.1425C135.682 26.4495 135.837 26.8459 135.884 27.3317H133.654V28.0755H135.884C135.83 28.5816 135.669 28.9847 135.399 29.2849C135.134 29.5852 134.757 29.7353 134.27 29.7353C133.573 29.7353 133.099 29.4165 132.847 28.7789L131.939 29.0167C132.131 29.5261 132.427 29.9158 132.827 30.1857C133.227 30.4555 133.71 30.5905 134.275 30.5905Z" fill="#606A78"/>
<path d="M138.174 30.4387H139.087V27.8074L141.564 30.4387H142.82L140.131 27.7061L142.537 24.9736H141.372L139.087 27.6049V24.9736H138.179L138.174 30.4387Z" fill="#606A78"/>
<path d="M145.72 30.5905C146.282 30.5905 146.763 30.4555 147.163 30.1857C147.563 29.9158 147.859 29.5261 148.051 29.0167L147.143 28.7789C146.89 29.4165 146.416 29.7353 145.72 29.7353C145.179 29.7353 144.77 29.5498 144.494 29.1787C144.222 28.8076 144.082 28.3167 144.076 27.7061C144.082 27.1124 144.219 26.6266 144.484 26.2488C144.75 25.8676 145.162 25.677 145.72 25.677C146.05 25.677 146.344 25.7647 146.603 25.9401C146.862 26.1155 147.048 26.3618 147.163 26.6789L148.051 26.4107C147.906 25.9182 147.625 25.5302 147.208 25.2469C146.795 24.9635 146.302 24.8218 145.73 24.8218C145.185 24.8218 144.718 24.9449 144.328 25.1912C143.941 25.4341 143.645 25.7714 143.44 26.2033C143.235 26.6351 143.129 27.136 143.122 27.7061C143.129 28.2628 143.233 28.7587 143.435 29.1939C143.637 29.629 143.929 29.9714 144.313 30.2211C144.7 30.4674 145.169 30.5905 145.72 30.5905Z" fill="#606A78"/>
<path d="M149.277 30.4387H150.175V25.8288H152.843V30.4387H153.741V24.9736H149.277V30.4387Z" fill="#606A78"/>
<path d="M157.716 30.5905C158.244 30.5905 158.72 30.4589 159.143 30.1958C159.567 29.9293 159.887 29.5548 160.102 29.0724L159.239 28.7739C158.927 29.4148 158.405 29.7353 157.676 29.7353C157.175 29.7353 156.781 29.5818 156.495 29.2748C156.213 28.9645 156.053 28.5259 156.016 27.9592H160.193C160.22 27.3114 160.136 26.7531 159.94 26.2842C159.749 25.8153 159.46 25.4543 159.073 25.2013C158.69 24.9483 158.224 24.8218 157.676 24.8218C157.148 24.8218 156.687 24.9416 156.294 25.1811C155.9 25.4172 155.594 25.7546 155.375 26.1931C155.16 26.6283 155.053 27.1445 155.053 27.7416C155.053 28.3117 155.162 28.811 155.381 29.2394C155.602 29.6645 155.914 29.9967 156.314 30.2363C156.714 30.4724 157.181 30.5905 157.716 30.5905ZM157.706 25.6314C158.631 25.6314 159.149 26.1661 159.26 27.2355H156.031C156.095 26.716 156.268 26.3196 156.551 26.0464C156.833 25.7698 157.218 25.6314 157.706 25.6314Z" fill="#606A78"/>
<path d="M161.512 32.8676H162.415V29.9327C162.61 30.1384 162.841 30.3004 163.106 30.4184C163.375 30.5331 163.68 30.5905 164.019 30.5905C164.527 30.5905 164.963 30.464 165.326 30.211C165.692 29.9546 165.973 29.6088 166.168 29.1736C166.363 28.7384 166.461 28.2476 166.461 27.7011C166.461 27.1546 166.363 26.6637 166.168 26.2286C165.973 25.7934 165.692 25.451 165.326 25.2013C164.963 24.9483 164.529 24.8218 164.024 24.8218C163.655 24.8218 163.327 24.8893 163.041 25.0242C162.755 25.1592 162.513 25.3464 162.314 25.5859V24.9736H161.512V32.8676ZM163.908 29.7657C163.36 29.7657 162.957 29.5717 162.698 29.1837C162.442 28.7958 162.314 28.3016 162.314 27.7011C162.314 27.0972 162.442 26.6047 162.698 26.2235C162.957 25.8389 163.352 25.6466 163.883 25.6466C164.253 25.6466 164.557 25.7377 164.796 25.9199C165.038 26.102 165.217 26.3483 165.331 26.6587C165.449 26.969 165.507 27.3165 165.507 27.7011C165.507 28.089 165.449 28.4399 165.331 28.7536C165.213 29.064 165.037 29.3102 164.801 29.4924C164.566 29.6746 164.268 29.7657 163.908 29.7657Z" fill="#606A78"/>
<path d="M169.211 30.4387H170.109V25.7934H172.005V24.9736H167.314V25.7934H169.211V30.4387Z" fill="#606A78"/>
<path d="M177.621 24.9736H176.885L174.025 28.9459V24.9736H173.157V30.4387H173.899L176.754 26.4107V30.4387H177.621V24.9736Z" fill="#606A78"/>
<path d="M181.188 30.5905C181.578 30.5905 181.931 30.523 182.247 30.3881C182.563 30.2498 182.814 30.0541 182.999 29.8011C183.187 29.5447 183.281 29.2377 183.281 28.8801C183.281 28.617 183.224 28.3674 183.11 28.1312C182.999 27.8917 182.829 27.7078 182.6 27.5796C182.953 27.2693 183.13 26.8813 183.13 26.4158C183.13 26.0751 183.042 25.7866 182.867 25.5505C182.696 25.311 182.464 25.1305 182.171 25.009C181.882 24.8842 181.563 24.8218 181.213 24.8218C180.776 24.8218 180.372 24.9011 180.002 25.0596C179.636 25.2148 179.313 25.4375 179.034 25.7276L179.579 26.3399C179.777 26.1476 180.014 25.989 180.29 25.8642C180.566 25.736 180.855 25.6719 181.157 25.6719C181.443 25.6719 181.689 25.7377 181.894 25.8693C182.102 26.0008 182.207 26.2066 182.207 26.4866C182.207 26.7633 182.096 26.9589 181.874 27.0736C181.652 27.1883 181.364 27.2457 181.011 27.2457H180.451V27.9895H181.016C181.437 27.9895 181.766 28.0435 182.005 28.1514C182.244 28.256 182.363 28.4686 182.363 28.789C182.363 29.0825 182.254 29.3136 182.035 29.4823C181.817 29.651 181.522 29.7353 181.152 29.7353C180.799 29.7353 180.485 29.656 180.209 29.4975C179.933 29.3355 179.696 29.1045 179.498 28.8042L178.782 29.2698C179.02 29.6847 179.347 30.0086 179.76 30.2413C180.174 30.4741 180.65 30.5905 181.188 30.5905Z" fill="#606A78"/>
<path d="M186.138 30.5905C187.046 30.5905 187.719 30.2565 188.156 29.5886V30.4387H188.953V27.0584C188.953 26.8425 188.943 26.6367 188.923 26.4411C188.903 26.242 188.854 26.0582 188.777 25.8895C188.622 25.5319 188.366 25.2654 188.01 25.09C187.653 24.9112 187.23 24.8218 186.739 24.8218C186.123 24.8218 185.626 24.9584 185.246 25.2317C184.869 25.5049 184.617 25.8811 184.489 26.3601L185.341 26.6182C185.439 26.2842 185.612 26.0413 185.861 25.8895C186.11 25.7377 186.399 25.6618 186.729 25.6618C187.199 25.6618 187.537 25.7681 187.743 25.9806C187.951 26.1898 188.06 26.5119 188.07 26.9471C187.667 27.0045 187.243 27.0652 186.799 27.1293C186.359 27.19 185.967 27.2659 185.624 27.357C185.21 27.4784 184.884 27.669 184.645 27.9288C184.407 28.1852 184.287 28.5293 184.287 28.9611C184.287 29.2546 184.356 29.5245 184.494 29.7707C184.635 30.017 184.842 30.216 185.114 30.3678C185.39 30.5163 185.732 30.5905 186.138 30.5905ZM186.275 29.8365C185.888 29.8365 185.609 29.7471 185.437 29.5683C185.266 29.3861 185.18 29.1821 185.18 28.956C185.18 28.6996 185.264 28.504 185.432 28.369C185.604 28.2307 185.802 28.1261 186.028 28.0553C186.293 27.9811 186.603 27.9187 186.956 27.8681C187.309 27.8175 187.677 27.7669 188.06 27.7163C188.06 27.8411 188.054 27.9828 188.04 28.1413C188.03 28.2999 188.006 28.4449 187.97 28.5765C187.906 28.9139 187.727 29.209 187.435 29.4621C187.146 29.7117 186.759 29.8365 186.275 29.8365Z" fill="#606A78"/>
<path d="M61.8157 36.1061H61.0793L58.2192 40.0784V36.1061H57.3516V41.5712H58.0931L60.9481 37.5433V41.5712H61.8157V36.1061Z" fill="#606A78"/>
<path d="M65.6465 41.5712H66.5444V36.9613H69.2128V41.5712H70.1106V36.1061H65.6465V41.5712Z" fill="#606A78"/>
<path d="M71.7201 44.0001H72.623V41.0652C72.818 41.271 73.0484 41.4329 73.314 41.551C73.583 41.6657 73.8874 41.723 74.227 41.723C74.7348 41.723 75.1703 41.5965 75.5335 41.3435C75.9 41.0871 76.1808 40.7413 76.3758 40.3061C76.5709 39.871 76.6684 39.3801 76.6684 38.8336C76.6684 38.2871 76.5709 37.7963 76.3758 37.3611C76.1808 36.9259 75.9 36.5835 75.5335 36.3339C75.1703 36.0808 74.7365 35.9543 74.2321 35.9543C73.8622 35.9543 73.5343 36.0218 73.2484 36.1567C72.9626 36.2917 72.7205 36.4789 72.5221 36.7184V36.1061H71.7201V44.0001ZM74.116 40.8982C73.5679 40.8982 73.1644 40.7042 72.9054 40.3163C72.6499 39.9283 72.5221 39.4341 72.5221 38.8336C72.5221 38.2298 72.6499 37.7372 72.9054 37.356C73.1644 36.9714 73.5595 36.7792 74.0908 36.7792C74.4607 36.7792 74.7651 36.8702 75.0038 37.0524C75.2459 37.2346 75.4242 37.4808 75.5385 37.7912C75.6562 38.1016 75.715 38.449 75.715 38.8336C75.715 39.2216 75.6562 39.5724 75.5385 39.8861C75.4208 40.1965 75.2443 40.4428 75.0089 40.6249C74.7735 40.8071 74.4759 40.8982 74.116 40.8982Z" fill="#606A78"/>
<path d="M80.2963 41.723C80.8377 41.723 81.3034 41.6016 81.6935 41.3587C82.087 41.1158 82.3896 40.7767 82.6015 40.3416C82.8167 39.9064 82.9243 39.4037 82.9243 38.8336C82.9243 38.2702 82.8184 37.7727 82.6065 37.3408C82.398 36.9057 82.097 36.5666 81.7036 36.3237C81.3102 36.0775 80.841 35.9543 80.2963 35.9543C79.7649 35.9543 79.3026 36.0758 78.9091 36.3187C78.5157 36.5582 78.2113 36.8939 77.9961 37.3257C77.7809 37.7575 77.6733 38.2601 77.6733 38.8336C77.6733 39.397 77.7775 39.8963 77.986 40.3314C78.1979 40.7666 78.5005 41.1074 78.894 41.3536C79.2874 41.5999 79.7549 41.723 80.2963 41.723ZM80.2963 40.8678C79.7481 40.8678 79.3328 40.684 79.0504 40.3163C78.7679 39.9452 78.6266 39.451 78.6266 38.8336C78.6266 38.2365 78.7628 37.7507 79.0352 37.3763C79.3076 36.9984 79.728 36.8095 80.2963 36.8095C80.8545 36.8095 81.2732 36.9934 81.5523 37.3611C81.8314 37.7288 81.9709 38.2196 81.9709 38.8336C81.9709 39.4341 81.8314 39.9233 81.5523 40.3011C81.2765 40.6789 80.8579 40.8678 80.2963 40.8678Z" fill="#606A78"/>
<path d="M86.5973 41.723C87.1253 41.723 87.6011 41.5914 88.0248 41.3283C88.4485 41.0618 88.768 40.6874 88.9832 40.2049L88.1207 39.9064C87.8079 40.5474 87.2867 40.8678 86.557 40.8678C86.0559 40.8678 85.6625 40.7143 85.3766 40.4074C85.0942 40.097 84.9344 39.6584 84.8974 39.0917H89.074C89.1009 38.444 89.0169 37.8857 88.8218 37.4168C88.6301 36.9478 88.3409 36.5869 87.9542 36.3339C87.5709 36.0808 87.1051 35.9543 86.557 35.9543C86.029 35.9543 85.5683 36.0741 85.1749 36.3136C84.7814 36.5498 84.4754 36.8871 84.2568 37.3257C84.0416 37.7608 83.934 38.277 83.934 38.8741C83.934 39.4442 84.0433 39.9435 84.2619 40.3719C84.4838 40.797 84.7949 41.1293 85.195 41.3688C85.5952 41.6049 86.0626 41.723 86.5973 41.723ZM86.5872 36.764C87.512 36.764 88.0299 37.2987 88.1408 38.3681H84.9126C84.9765 37.8486 85.1496 37.4522 85.4321 37.1789C85.7146 36.9023 86.0996 36.764 86.5872 36.764Z" fill="#606A78"/>
<path d="M90.3938 41.5712H91.3068V38.9399L93.7835 41.5712H95.0395L92.3509 38.8387L94.757 36.1061H93.5918L91.3068 38.7375V36.1061H90.3988L90.3938 41.5712Z" fill="#606A78"/>
<path d="M97.1859 41.5712H98.0838V36.9259H99.9804V36.1061H95.2893V36.9259H97.1859V41.5712Z" fill="#606A78"/>
<path d="M105.596 36.1061H104.86L102 40.0784V36.1061H101.132V41.5712H101.873L104.728 37.5433V41.5712H105.596V36.1061Z" fill="#606A78"/>
<path d="M107.205 44.0001H108.108V41.0652C108.303 41.271 108.534 41.4329 108.799 41.551C109.068 41.6657 109.373 41.723 109.712 41.723C110.22 41.723 110.656 41.5965 111.019 41.3435C111.385 41.0871 111.666 40.7413 111.861 40.3061C112.056 39.871 112.154 39.3801 112.154 38.8336C112.154 38.2871 112.056 37.7963 111.861 37.3611C111.666 36.9259 111.385 36.5835 111.019 36.3339C110.656 36.0808 110.222 35.9543 109.718 35.9543C109.348 35.9543 109.02 36.0218 108.734 36.1567C108.448 36.2917 108.206 36.4789 108.008 36.7184V36.1061H107.205V44.0001ZM109.601 40.8982C109.053 40.8982 108.65 40.7042 108.391 40.3163C108.135 39.9283 108.008 39.4341 108.008 38.8336C108.008 38.2298 108.135 37.7372 108.391 37.356C108.65 36.9714 109.045 36.7792 109.576 36.7792C109.946 36.7792 110.251 36.8702 110.489 37.0524C110.731 37.2346 110.91 37.4808 111.024 37.7912C111.142 38.1016 111.2 38.449 111.2 38.8336C111.2 39.2216 111.142 39.5724 111.024 39.8861C110.906 40.1965 110.73 40.4428 110.494 40.6249C110.259 40.8071 109.961 40.8982 109.601 40.8982Z" fill="#606A78"/>
<path d="M115.782 41.723C116.323 41.723 116.789 41.6016 117.179 41.3587C117.572 41.1158 117.875 40.7767 118.087 40.3416C118.302 39.9064 118.41 39.4037 118.41 38.8336C118.41 38.2702 118.304 37.7727 118.092 37.3408C117.883 36.9057 117.582 36.5666 117.189 36.3237C116.796 36.0775 116.326 35.9543 115.782 35.9543C115.25 35.9543 114.788 36.0758 114.395 36.3187C114.001 36.5582 113.697 36.8939 113.482 37.3257C113.266 37.7575 113.159 38.2601 113.159 38.8336C113.159 39.397 113.263 39.8963 113.471 40.3314C113.683 40.7666 113.986 41.1074 114.379 41.3536C114.773 41.5999 115.24 41.723 115.782 41.723ZM115.782 40.8678C115.234 40.8678 114.818 40.684 114.536 40.3163C114.253 39.9452 114.112 39.451 114.112 38.8336C114.112 38.2365 114.248 37.7507 114.521 37.3763C114.793 36.9984 115.213 36.8095 115.782 36.8095C116.34 36.8095 116.759 36.9934 117.038 37.3611C117.317 37.7288 117.456 38.2196 117.456 38.8336C117.456 39.4341 117.317 39.9233 117.038 40.3011C116.762 40.6789 116.343 40.8678 115.782 40.8678Z" fill="#606A78"/>
<path d="M119.717 41.5712H122.3C122.448 41.5712 122.601 41.5661 122.759 41.556C122.917 41.5425 123.061 41.5172 123.192 41.4801C123.505 41.3924 123.751 41.2271 123.929 40.9842C124.107 40.7413 124.196 40.4343 124.196 40.0633C124.196 39.7731 124.141 39.5336 124.03 39.3447C123.919 39.1524 123.769 39.004 123.581 38.8994C123.456 38.8286 123.337 38.783 123.223 38.7628C123.351 38.7122 123.467 38.6346 123.571 38.53C123.682 38.4221 123.769 38.2922 123.833 38.1404C123.897 37.9852 123.929 37.8047 123.929 37.5989C123.929 37.2312 123.833 36.9276 123.641 36.6881C123.45 36.4486 123.209 36.2883 122.92 36.2074C122.789 36.1702 122.643 36.1449 122.481 36.1314C122.323 36.1146 122.175 36.1061 122.037 36.1061H119.717V41.5712ZM120.625 38.4693V36.85H121.901C121.938 36.85 122.022 36.8534 122.153 36.8601C122.285 36.8669 122.406 36.8888 122.517 36.9259C122.675 36.9799 122.794 37.0743 122.875 37.2093C122.955 37.3408 122.996 37.4927 122.996 37.6647C122.996 37.8233 122.959 37.97 122.885 38.1049C122.811 38.2365 122.698 38.331 122.547 38.3883C122.469 38.4187 122.377 38.4406 122.269 38.4541C122.165 38.4642 122.068 38.4693 121.977 38.4693H120.625ZM120.625 40.8375V39.2131H122.169C122.229 39.2131 122.3 39.2148 122.38 39.2182C122.464 39.2216 122.543 39.2334 122.617 39.2536C122.809 39.2874 122.965 39.3717 123.087 39.5066C123.208 39.6416 123.268 39.817 123.268 40.0329C123.268 40.1948 123.228 40.3466 123.147 40.4883C123.07 40.6266 122.944 40.7194 122.769 40.7666C122.691 40.7902 122.602 40.8088 122.501 40.8223C122.404 40.8324 122.32 40.8375 122.249 40.8375H120.625Z" fill="#606A78"/>
<path d="M126.96 41.723C127.868 41.723 128.54 41.389 128.978 40.7211V41.5712H129.775V38.191C129.775 37.9751 129.765 37.7693 129.744 37.5736C129.724 37.3746 129.675 37.1907 129.598 37.0221C129.443 36.6645 129.188 36.398 128.831 36.2225C128.475 36.0437 128.051 35.9543 127.56 35.9543C126.945 35.9543 126.447 36.091 126.067 36.3642C125.69 36.6375 125.438 37.0136 125.31 37.4927L126.163 37.7507C126.26 37.4168 126.434 37.1739 126.683 37.0221C126.931 36.8702 127.221 36.7943 127.55 36.7943C128.021 36.7943 128.359 36.9006 128.564 37.1131C128.772 37.3223 128.882 37.6445 128.892 38.0796C128.488 38.137 128.065 38.1977 127.621 38.2618C127.18 38.3225 126.788 38.3984 126.445 38.4895C126.032 38.611 125.706 38.8016 125.467 39.0613C125.228 39.3177 125.109 39.6618 125.109 40.0936C125.109 40.3871 125.178 40.657 125.316 40.9033C125.457 41.1495 125.664 41.3486 125.936 41.5004C126.212 41.6488 126.553 41.723 126.96 41.723ZM127.096 40.969C126.709 40.969 126.43 40.8796 126.259 40.7008C126.087 40.5187 126.002 40.3146 126.002 40.0886C126.002 39.8322 126.086 39.6365 126.254 39.5016C126.425 39.3633 126.624 39.2587 126.849 39.1878C127.115 39.1136 127.424 39.0512 127.777 39.0006C128.13 38.95 128.498 38.8994 128.882 38.8488C128.882 38.9736 128.875 39.1153 128.862 39.2739C128.852 39.4324 128.828 39.5775 128.791 39.709C128.727 40.0464 128.549 40.3416 128.256 40.5946C127.967 40.8442 127.58 40.969 127.096 40.969Z" fill="#606A78"/>
<path d="M131.283 41.5712H132.181V39.2637H135.046V41.5712H135.944V36.1061H135.046V38.4086H132.181V36.1061H131.283V41.5712Z" fill="#606A78"/>
<path d="M142.017 36.1061H141.281L138.421 40.0784V36.1061H137.553V41.5712H138.295L141.15 37.5433V41.5712H142.017V36.1061Z" fill="#606A78"/>
<path d="M145.993 41.723C146.521 41.723 146.996 41.5914 147.42 41.3283C147.844 41.0618 148.163 40.6874 148.378 40.2049L147.516 39.9064C147.203 40.5474 146.682 40.8678 145.952 40.8678C145.451 40.8678 145.058 40.7143 144.772 40.4074C144.489 40.097 144.33 39.6584 144.293 39.0917H148.469C148.496 38.444 148.412 37.8857 148.217 37.4168C148.025 36.9478 147.736 36.5869 147.349 36.3339C146.966 36.0808 146.5 35.9543 145.952 35.9543C145.424 35.9543 144.964 36.0741 144.57 36.3136C144.177 36.5498 143.871 36.8871 143.652 37.3257C143.437 37.7608 143.329 38.277 143.329 38.8741C143.329 39.4442 143.439 39.9435 143.657 40.3719C143.879 40.797 144.19 41.1293 144.59 41.3688C144.99 41.6049 145.458 41.723 145.993 41.723ZM145.983 36.764C146.907 36.764 147.425 37.2987 147.536 38.3681H144.308C144.372 37.8486 144.545 37.4522 144.827 37.1789C145.11 36.9023 145.495 36.764 145.983 36.764Z" fill="#606A78"/>
</svg>
