<svg width="417" height="236" viewBox="0 0 417 236" fill="none" xmlns="http://www.w3.org/2000/svg">
<g clip-path="url(#clip0_3785_14143)">
<mask id="mask0_3785_14143" style="mask-type:alpha" maskUnits="userSpaceOnUse" x="-702" y="0" width="1119" height="236">
<rect x="-702" width="1119" height="236" fill="#0A5C6D"/>
</mask>
<g mask="url(#mask0_3785_14143)">
<path d="M368.798 201.087C368.798 171.65 344.837 147.699 315.381 147.699C285.926 147.699 261.967 171.65 261.967 201.087C261.967 230.523 285.928 254.472 315.374 254.472C323.601 254.477 331.717 252.569 339.079 248.9L366.652 254.472L359.22 231.526C365.461 222.602 368.806 211.975 368.798 201.087ZM315.422 232.433C312.784 232.433 310.676 229.946 310.676 227.621C310.676 224.683 312.784 222.649 315.422 222.649C318.359 222.649 320.394 224.675 320.394 227.621C320.394 229.946 318.359 232.433 315.422 232.433ZM323.936 208.416C321.524 209.682 319.263 210.751 319.263 212.858L319.294 215.29C319.3 215.769 319.211 216.245 319.031 216.69C318.852 217.134 318.586 217.539 318.249 217.88C317.912 218.221 317.51 218.492 317.068 218.677C316.625 218.862 316.15 218.957 315.67 218.957H315.28C314.319 218.957 313.397 218.575 312.717 217.896C312.037 217.217 311.654 216.296 311.654 215.335V212.785C311.654 206.008 316.025 203.974 320.776 201.563H320.7C323.488 200.059 326.351 198.552 326.503 194.033C326.653 189.29 322.659 184.696 315.427 184.696C311.294 184.696 307.972 186.648 305.57 189.943C305.025 190.735 304.189 191.278 303.244 191.453C302.299 191.628 301.323 191.421 300.531 190.877C299.739 190.333 299.195 189.496 299.02 188.552C298.845 187.607 299.053 186.632 299.597 185.84C303.025 180.603 308.278 176.865 315.422 176.865C327.628 176.865 334.708 185.223 334.559 194.183C334.333 203.143 328.682 205.856 323.936 208.416Z" fill="#044C5F"/>
<path d="M255.063 -41C206.529 -41 167.047 -1.53946 167.047 46.9625C167.032 64.8982 172.537 82.4045 182.814 97.1081L170.569 134.92L215.999 125.752C228.133 131.795 241.506 134.936 255.063 134.927C303.595 134.927 343.075 95.467 343.075 46.9625C343.075 -1.542 303.59 -41 255.063 -41ZM252.38 105.663C247.167 105.663 243.004 100.747 243.004 96.1356C243.004 90.3308 247.172 86.3116 252.38 86.3116C258.188 86.3116 262.209 90.3308 262.209 96.1356C262.209 100.747 258.188 105.663 252.38 105.663ZM269.208 58.1895C264.444 60.7221 259.974 62.8039 259.974 66.9726L260.035 71.7845C260.047 72.7323 259.87 73.673 259.515 74.552C259.161 75.4311 258.635 76.231 257.969 76.9055C257.302 77.58 256.509 78.1155 255.634 78.4811C254.759 78.8467 253.82 79.0351 252.871 79.0354H252.099C251.156 79.0361 250.223 78.851 249.353 78.4909C248.482 78.1308 247.691 77.6027 247.025 76.9367C246.359 76.2708 245.831 75.4801 245.471 74.61C245.111 73.7398 244.926 72.8072 244.927 71.8656V66.8232C244.927 53.4282 253.566 49.409 262.947 44.6451H262.8C268.309 41.6693 273.967 38.6935 274.266 29.761C274.565 20.3904 266.664 11.3034 252.372 11.3034C244.205 11.3034 237.637 15.1605 232.891 21.6871C231.792 23.1939 230.148 24.213 228.31 24.5278C226.471 24.8427 224.582 24.4284 223.043 23.3731C221.505 22.3177 220.44 20.7045 220.073 18.8763C219.706 17.0481 220.068 15.149 221.08 13.5827C227.868 3.23197 238.273 -4.16071 252.372 -4.16071C276.501 -4.16071 290.499 12.3595 290.2 30.0725C289.762 47.7729 278.592 53.1294 269.208 58.1895V58.1895Z" fill="#044C5F"/>
<path d="M110.324 40.0129C84.7789 40.0129 64 60.7828 64 86.3115C63.9914 95.7531 66.8887 104.969 72.2989 112.709L65.8549 132.613L89.7659 127.785C96.1519 130.965 103.19 132.617 110.324 132.613C135.87 132.613 156.651 111.845 156.651 86.3115C156.651 60.7778 135.87 40.0129 110.324 40.0129ZM108.915 117.207C106.174 117.207 103.977 114.621 103.977 112.195C103.977 109.138 106.174 107.023 108.915 107.023C111.974 107.023 114.09 109.138 114.09 112.195C114.09 114.621 111.974 117.207 108.915 117.207V117.207ZM117.784 92.2201C115.276 93.5522 112.924 94.6489 112.924 96.8446L112.955 99.3772C112.961 99.8761 112.868 100.371 112.681 100.834C112.494 101.296 112.217 101.717 111.867 102.072C111.516 102.427 111.098 102.709 110.638 102.902C110.177 103.094 109.683 103.194 109.184 103.194H108.779C107.778 103.194 106.819 102.797 106.111 102.09C105.404 101.384 105.006 100.425 105.005 99.4253V96.7737C105.005 89.7229 109.554 87.6057 114.493 85.0984H114.414C117.313 83.5332 120.293 81.9656 120.45 77.265C120.607 72.329 116.452 67.55 108.926 67.55C104.618 67.55 101.169 69.5761 98.6729 73.0103C98.0972 73.8118 97.2301 74.3559 96.2577 74.5259C95.2852 74.6958 94.2848 74.4781 93.4711 73.9194C92.6574 73.3606 92.0953 72.5054 91.9052 71.5372C91.7151 70.569 91.9123 69.5649 92.4545 68.7403C96.0274 63.2927 101.503 59.4026 108.926 59.4026C121.626 59.4026 128.992 68.097 128.835 77.4221C128.592 86.737 122.711 89.5583 117.774 92.215L117.784 92.2201Z" fill="#044C5F"/>
<path d="M424 105.661C424 85.0378 407.212 68.2593 386.575 68.2593C365.938 68.2593 349.152 85.0378 349.152 105.661C349.152 126.284 365.94 143.065 386.58 143.065C392.344 143.069 398.03 141.735 403.19 139.167L422.504 143.065L417.3 126.988C421.668 120.733 424.007 113.288 424 105.661V105.661ZM386.603 127.624C384.755 127.624 383.278 125.881 383.278 124.248C383.278 122.189 384.755 120.765 386.603 120.765C388.663 120.765 390.087 122.189 390.087 124.248C390.057 125.152 389.677 126.009 389.027 126.639C388.377 127.268 387.508 127.621 386.603 127.624V127.624ZM392.568 110.797C390.877 111.693 389.294 112.433 389.294 113.91L389.316 115.614C389.321 115.95 389.259 116.283 389.134 116.594C389.009 116.905 388.823 117.189 388.587 117.428C388.351 117.667 388.07 117.856 387.76 117.986C387.451 118.115 387.118 118.182 386.782 118.182H386.509C385.837 118.182 385.192 117.915 384.717 117.44C384.242 116.965 383.975 116.321 383.975 115.649V113.861C383.975 109.115 387.036 107.689 390.36 106.01H390.307C392.261 104.957 394.268 103.901 394.362 100.735C394.468 97.4121 391.671 94.1932 386.603 94.1932C383.709 94.1932 381.38 95.5608 379.697 97.8705C379.316 98.4253 378.73 98.806 378.067 98.9288C377.405 99.0515 376.721 98.9064 376.166 98.5252C375.611 98.144 375.23 97.558 375.107 96.8962C374.984 96.2343 375.13 95.5508 375.511 94.996C377.918 91.3263 381.593 88.7075 386.603 88.7075C395.155 88.7075 400.116 94.5629 400.01 100.841C399.853 107.104 395.892 109.004 392.568 110.797V110.797Z" fill="#044C5F"/>
</g>
</g>
<defs>
<clipPath id="clip0_3785_14143">
<rect width="417" height="236" fill="white"/>
</clipPath>
</defs>
</svg>
