<svg xmlns="http://www.w3.org/2000/svg">
<style>[viewBox] { display: none; } :target { display: block; }</style>

<svg id="arrow-big" viewBox="0 0 24 24">
<path d="M7.4357 6L1.81 11.625L7.4357 17.25M2.59135 11.625H7.9045H22" stroke="#343944" stroke-width="2" stroke-miterlimit="10" stroke-linecap="square" fill="none"/></svg>

<svg id="arrow-right" viewBox="0 0 24 24"><path d="M12.57,5l6.93,7-6.93,7m6-7H4.5" fill="none" stroke="#0A5C6D" stroke-linecap="square" stroke-miterlimit="10" stroke-width="2"/></svg>

<svg id="icon-marker" viewBox="0 0 14 15"><path d="M0 0L13.0469 7.5L0 15V10.1562L4.5625 7.5L0 4.84375V0Z" fill="#E1E2E3"/></svg>
<svg id="icon-marker-active" viewBox="0 0 14 15"><path d="M0 0L13.0469 7.5L0 15V10.1562L4.5625 7.5L0 4.84375V0Z" fill="#0A5C6D"/></svg>

<svg id="icon-doc" viewBox="0 0 24 24">
<path d="M21 8V20.993C21.0009 21.1243 20.976 21.2545 20.9266 21.3762C20.8772 21.4979 20.8043 21.6087 20.7121 21.7022C20.6199 21.7957 20.5101 21.8701 20.3892 21.9212C20.2682 21.9723 20.1383 21.9991 20.007 22H3.993C3.72981 22 3.47739 21.8955 3.2912 21.7095C3.105 21.5235 3.00027 21.2712 3 21.008V2.992C3 2.455 3.449 2 4.002 2H14.997L21 8ZM19 9H14V4H5V20H19V9ZM8 7H11V9H8V7ZM8 11H16V13H8V11ZM8 15H16V17H8V15Z" fill="#0A5C6D"/></svg>

<svg id="icon-doc-gray" viewBox="0 0 24 24">
<path d="M21 8V20.993C21.0009 21.1243 20.976 21.2545 20.9266 21.3762C20.8772 21.4979 20.8043 21.6087 20.7121 21.7022C20.6199 21.7957 20.5101 21.8701 20.3892 21.9212C20.2682 21.9723 20.1383 21.9991 20.007 22H3.993C3.72981 22 3.47739 21.8955 3.2912 21.7095C3.105 21.5235 3.00027 21.2712 3 21.008V2.992C3 2.455 3.449 2 4.002 2H14.997L21 8ZM19 9H14V4H5V20H19V9ZM8 7H11V9H8V7ZM8 11H16V13H8V11ZM8 15H16V17H8V15Z" fill="#9A9CA2"/></svg>

<svg id="icon-feed" viewBox="0 0 24 24">
<path d="M16 20V4H4V19C4 19.2652 4.10536 19.5196 4.29289 19.7071C4.48043 19.8946 4.73478 20 5 20H16ZM19 22H5C4.20435 22 3.44129 21.6839 2.87868 21.1213C2.31607 20.5587 2 19.7956 2 19V3C2 2.73478 2.10536 2.48043 2.29289 2.29289C2.48043 2.10536 2.73478 2 3 2H17C17.2652 2 17.5196 2.10536 17.7071 2.29289C17.8946 2.48043 18 2.73478 18 3V10H22V19C22 19.7956 21.6839 20.5587 21.1213 21.1213C20.5587 21.6839 19.7956 22 19 22ZM18 12V19C18 19.2652 18.1054 19.5196 18.2929 19.7071C18.4804 19.8946 18.7348 20 19 20C19.2652 20 19.5196 19.8946 19.7071 19.7071C19.8946 19.5196 20 19.2652 20 19V12H18ZM6 6H12V12H6V6ZM8 8V10H10V8H8ZM6 13H14V15H6V13ZM6 16H14V18H6V16Z" fill="#0A5C6D"/></svg>


</svg>
